999
dxflib 3.12.2.0
  0
SECTION
  2
HEADER
  9
$ACADVER
  1
AC1015
  9
$HANDSEED
  5
FFFF
  9
$ANGBASE
 50
0.0
  9
$ATTMODE
 70
1
  9
$AUNITS
 70
0
  9
$AUPREC
 70
0
  9
$CELTSCALE
 40
1.0
  9
$CHAMFERA
 40
0.0
  9
$CHAMFERB
 40
0.0
  9
$CHAMFERC
 40
0.0
  9
$CHAMFERD
 40
0.0
  9
$CMLJUST
 70
0
  9
$CMLSCALE
 40
1.0
  9
$DIMADEC
 70
0
  9
$DIMALTD
 70
2
  9
$DIMALTF
 40
25.399999999999999
  9
$DIMALTRND
 40
0.0
  9
$DIMALTTD
 70
2
  9
$DIMALTTZ
 70
0
  9
$DIMALTU
 70
2
  9
$DIMALTZ
 70
0
  9
$DIMAPOST
  1

  9
$DIMASZ
 40
2.5
  9
$DIMATFIT
 70
3
  9
$DIMAUNIT
 70
0
  9
$DIMAZIN
 70
2
  9
$DIMCEN
 40
0.09
  9
$DIMDEC
 70
4
  9
$DIMDLE
 40
0.0
  9
$DIMDLI
 40
0.38
  9
$DIMDSEP
 70
46
  9
$DIMEXE
 40
1.25
  9
$DIMEXO
 40
0.625
  9
$DIMFRAC
 70
0
  9
$DIMGAP
 40
0.625
  9
$DIMJUST
 70
0
  9
$DIMLFAC
 40
1.0
  9
$DIMLUNIT
 70
2
  9
$DIMLWD
 70
-2
  9
$DIMLWE
 70
-2
  9
$DIMPOST
  1

  9
$DIMRND
 40
0.0
  9
$DIMSCALE
 40
1.0
  9
$DIMTAD
 70
0
  9
$DIMTDEC
 70
4
  9
$DIMTFAC
 40
1.0
  9
$DIMTM
 40
0.0
  9
$DIMTOLJ
 70
1
  9
$DIMTP
 40
0.0
  9
$DIMTSZ
 40
0.0
  9
$DIMTVP
 40
0.0
  9
$DIMTXT
 40
2.5
  9
$DIMTZIN
 70
0
  9
$DIMZIN
 70
8
  9
$DWGCODEPAGE
  3
ANSI_1252
  9
$ELEVATION
 40
0.0
  9
$EXTMAX
 10
-100000000000000000000.0
 20
-100000000000000000000.0
 30
-100000000000000000000.0
  9
$EXTMIN
 10
100000000000000000000.0
 20
100000000000000000000.0
 30
100000000000000000000.0
  9
$FILLETRAD
 40
0.5
  9
$INSBASE
 10
0.0
 20
0.0
 30
0.0
  9
$INSUNITS
 70
4
  9
$LIMMAX
 10
12.0
 20
9.0
  9
$LIMMIN
 10
0.0
 20
0.0
  9
$LTSCALE
 40
1.0
  9
$LUNITS
 70
2
  9
$LUPREC
 70
4
  9
$MAXACTVP
 70
2
  9
$MEASUREMENT
 70
1
  9
$PDMODE
 70
0
  9
$PDSIZE
 40
0.0
  9
$PELEVATION
 40
0.0
  9
$PEXTMAX
 10
-100000000000000000000.0
 20
-100000000000000000000.0
 30
-100000000000000000000.0
  9
$PEXTMIN
 10
100000000000000000000.0
 20
100000000000000000000.0
 30
100000000000000000000.0
  9
$PINSBASE
 10
0.0
 20
0.0
 30
0.0
  9
$PLIMMAX
 10
12.0
 20
9.0
  9
$PLIMMIN
 10
0.0
 20
0.0
  9
$PLINEWID
 40
0.0
  9
$PROXYGRAPHICS
 70
1
  9
$PUCSORG
 10
0.0
 20
0.0
 30
0.0
  9
$PUCSXDIR
 10
1.0
 20
0.0
 30
0.0
  9
$PUCSYDIR
 10
0.0
 20
1.0
 30
0.0
  9
$SHADEDGE
 70
3
  9
$SHADEDIF
 70
70
  9
$SKETCHINC
 40
0.1
  9
$SPLINESEGS
 70
8
  9
$SPLINETYPE
 70
6
  9
$SURFTAB1
 70
6
  9
$SURFTAB2
 70
6
  9
$SURFTYPE
 70
6
  9
$SURFU
 70
6
  9
$SURFV
 70
6
  9
$TEXTSIZE
 40
2.5
  9
$THICKNESS
 40
0.0
  9
$TRACEWID
 40
0.05
  9
$TREEDEPTH
 70
3020
  9
$UCSORG
 10
0.0
 20
0.0
 30
0.0
  9
$UCSXDIR
 10
1.0
 20
0.0
 30
0.0
  9
$UCSYDIR
 10
0.0
 20
1.0
 30
0.0
  9
$UNITMODE
 70
0
  9
$USERI1
 70
0
  9
$USERI2
 70
0
  9
$USERI3
 70
0
  9
$USERI4
 70
0
  9
$USERI5
 70
0
  9
$USERR1
 40
0.0
  9
$USERR2
 40
0.0
  9
$USERR3
 40
0.0
  9
$USERR4
 40
0.0
  9
$USERR5
 40
0.0
  0
ENDSEC
  0
SECTION
  2
TABLES
  0
TABLE
  2
VPORT
  5
8
100
AcDbSymbolTable
 70
1
  0
VPORT
  5
30
100
AcDbSymbolTableRecord
100
AcDbViewportTableRecord
  2
*Active
 70
0
 10
0.0
 20
0.0
 11
1.0
 21
1.0
 12
286.30555555555549
 22
148.5
 13
0.0
 23
0.0
 14
10.0
 24
10.0
 15
10.0
 25
10.0
 16
0.0
 26
0.0
 36
1.0
 17
0.0
 27
0.0
 37
0.0
 40
297.0
 41
1.92798353909465
 42
50.0
 43
0.0
 44
0.0
 50
0.0
 51
0.0
 71
0
 72
100
 73
1
 74
3
 75
1
 76
1
 77
0
 78
0
281
0
 65
1
110
0.0
120
0.0
130
0.0
111
1.0
121
0.0
131
0.0
112
0.0
122
1.0
132
0.0
 79
0
146
0.0
  0
ENDTAB
  0
TABLE
  2
LTYPE
  5
5
100
AcDbSymbolTable
 70
54
  0
LTYPE
  5
16
100
AcDbSymbolTableRecord
100
AcDbLinetypeTableRecord
  2
Continuous
 70
0
  3
Solid line
 72
65
 73
0
 40
0.0
  0
LTYPE
  5
31
100
AcDbSymbolTableRecord
100
AcDbLinetypeTableRecord
  2
ACAD_ISO15W100
 70
0
  3
ISO double-dash triple-dot __ __ . . . __ __ . .
 72
65
 73
10
 40
39.0
 49
12.0
 74
0
 49
-3.0
 74
0
 49
12.0
 74
0
 49
-3.0
 74
0
 49
0.0
 74
0
 49
-3.0
 74
0
 49
0.0
 74
0
 49
-3.0
 74
0
 49
0.0
 74
0
 49
-3.0
 74
0
  0
LTYPE
  5
32
100
AcDbSymbolTableRecord
100
AcDbLinetypeTableRecord
  2
CUTRIGHT2
 70
0
  3
G42 reversed----\----\----\----
 72
65
 73
2
 40
10.16
 49
5.0800000000000001
 74
0
 49
5.0800000000000001
 74
0
  0
LTYPE
  5
33
100
AcDbSymbolTableRecord
100
AcDbLinetypeTableRecord
  2
HOT_WATER_SUPPLY
 70
0
  3
Hot water supply ---- HW ---- HW ---- HW ----
 72
65
 73
3
 40
22.859999999999999
 49
12.699999999999999
 74
0
 49
-5.0800000000000001
 74
0
 49
-5.0800000000000001
 74
0
  0
LTYPE
  5
34
100
AcDbSymbolTableRecord
100
AcDbLinetypeTableRecord
  2
DIVIDE
 70
0
  3
Divide ____ . . ____ . . ____ . . ____ . . ____
 72
65
 73
6
 40
31.75
 49
12.699999999999999
 74
0
 49
-6.3499999999999996
 74
0
 49
0.0
 74
0
 49
-6.3499999999999996
 74
0
 49
0.0
 74
0
 49
-6.3499999999999996
 74
0
  0
LTYPE
  5
35
100
AcDbSymbolTableRecord
100
AcDbLinetypeTableRecord
  2
CUTRIGHT
 70
0
  3
G42 ----/----/-----/---
 72
65
 73
2
 40
10.16
 49
5.0800000000000001
 74
0
 49
5.0800000000000001
 74
0
  0
LTYPE
  5
36
100
AcDbSymbolTableRecord
100
AcDbLinetypeTableRecord
  2
ACAD_ISO10W100
 70
0
  3
ISO dash dot __ . __ . __ . __ . __ . __ . __ . 
 72
65
 73
4
 40
18.0
 49
12.0
 74
0
 49
-3.0
 74
0
 49
0.0
 74
0
 49
-3.0
 74
0
  0
LTYPE
  5
37
100
AcDbSymbolTableRecord
100
AcDbLinetypeTableRecord
  2
CUTLEFT
 70
0
  3
G41 ----\----\----\----
 72
65
 73
2
 40
10.16
 49
5.0800000000000001
 74
0
 49
5.0800000000000001
 74
0
  0
LTYPE
  5
38
100
AcDbSymbolTableRecord
100
AcDbLinetypeTableRecord
  2
GAS_LINE
 70
0
  3
Gas line ----GAS----GAS----GAS----GAS----GAS----GAS--
 72
65
 73
3
 40
24.130000000000003
 49
12.699999999999999
 74
0
 49
-5.0800000000000001
 74
0
 49
-6.3499999999999996
 74
0
  0
LTYPE
  5
39
100
AcDbSymbolTableRecord
100
AcDbLinetypeTableRecord
  2
ACAD_ISO04W100
 70
0
  3
ISO long-dash dot ____ . ____ . ____ . ____ . _
 72
65
 73
4
 40
30.0
 49
24.0
 74
0
 49
-3.0
 74
0
 49
0.0
 74
0
 49
-3.0
 74
0
  0
LTYPE
  5
3A
100
AcDbSymbolTableRecord
100
AcDbLinetypeTableRecord
  2
CUTLEFT2
 70
0
  3
G41 reversed----/----/----/----
 72
65
 73
2
 40
10.16
 49
5.0800000000000001
 74
0
 49
5.0800000000000001
 74
0
  0
LTYPE
  5
3B
100
AcDbSymbolTableRecord
100
AcDbLinetypeTableRecord
  2
CENTER2
 70
0
  3
Center (.5x) ___ _ ___ _ ___ _ ___ _ ___ _ ___
 72
65
 73
4
 40
28.575000000000003
 49
19.050000000000001
 74
0
 49
-3.1749999999999998
 74
0
 49
3.1749999999999998
 74
0
 49
-3.1749999999999998
 74
0
  0
LTYPE
  5
3C
100
AcDbSymbolTableRecord
100
AcDbLinetypeTableRecord
  2
ACAD_ISO11W100
 70
0
  3
ISO double-dash dot __ __ . __ __ . __ __ . __ _
 72
65
 73
6
 40
33.0
 49
12.0
 74
0
 49
-3.0
 74
0
 49
12.0
 74
0
 49
-3.0
 74
0
 49
0.0
 74
0
 49
-3.0
 74
0
  0
LTYPE
  5
3D
100
AcDbSymbolTableRecord
100
AcDbLinetypeTableRecord
  2
HIDDEN2
 70
0
  3
Hidden (.5x) _ _ _ _ _ _ _ _ _ _ _ _ _ _ _ _ _ 
 72
65
 73
2
 40
4.7624999999999993
 49
3.1749999999999998
 74
0
 49
-1.5874999999999999
 74
0
  0
LTYPE
  5
3E
100
AcDbSymbolTableRecord
100
AcDbLinetypeTableRecord
  2
BORDERX2
 70
0
  3
Border (2x) ____  ____  .  ____  ____  .  ___
 72
65
 73
6
 40
88.899999999999991
 49
25.399999999999999
 74
0
 49
-12.699999999999999
 74
0
 49
25.399999999999999
 74
0
 49
-12.699999999999999
 74
0
 49
0.0
 74
0
 49
-12.699999999999999
 74
0
  0
LTYPE
  5
3F
100
AcDbSymbolTableRecord
100
AcDbLinetypeTableRecord
  2
ACAD_ISO05W100
 70
0
  3
ISO long-dash double-dot ____ .. ____ .. ____ . 
 72
65
 73
6
 40
33.0
 49
24.0
 74
0
 49
-3.0
 74
0
 49
0.0
 74
0
 49
-3.0
 74
0
 49
0.0
 74
0
 49
-3.0
 74
0
  0
LTYPE
  5
40
100
AcDbSymbolTableRecord
100
AcDbLinetypeTableRecord
  2
DASHDOTX2
 70
0
  3
Dash dot (2x) ____  .  ____  .  ____  .  ___
 72
65
 73
4
 40
50.799999999999997
 49
25.399999999999999
 74
0
 49
-12.699999999999999
 74
0
 49
0.0
 74
0
 49
-12.699999999999999
 74
0
  0
LTYPE
  5
41
100
AcDbSymbolTableRecord
100
AcDbLinetypeTableRecord
  2
HIDDENX2
 70
0
  3
Hidden (2x) ____ ____ ____ ____ ____ ____ ____ 
 72
65
 73
2
 40
19.049999999999997
 49
12.699999999999999
 74
0
 49
-6.3499999999999996
 74
0
  0
LTYPE
  5
42
100
AcDbSymbolTableRecord
100
AcDbLinetypeTableRecord
  2
CENTERX2
 70
0
  3
Center (2x) ________  __  ________  __  _____
 72
65
 73
4
 40
101.60000000000001
 49
63.5
 74
0
 49
-12.699999999999999
 74
0
 49
12.699999999999999
 74
0
 49
-12.699999999999999
 74
0
  0
LTYPE
  5
43
100
AcDbSymbolTableRecord
100
AcDbLinetypeTableRecord
  2
BORDER2
 70
0
  3
Border (.5x) __.__.__.__.__.__.__.__.__.__.__.
 72
65
 73
6
 40
22.224999999999998
 49
6.3499999999999996
 74
0
 49
-3.1749999999999998
 74
0
 49
6.3499999999999996
 74
0
 49
-3.1749999999999998
 74
0
 49
0.0
 74
0
 49
-3.1749999999999998
 74
0
  0
LTYPE
  5
44
100
AcDbSymbolTableRecord
100
AcDbLinetypeTableRecord
  2
DASHDOT2
 70
0
  3
Dash dot (.5x) _._._._._._._._._._._._._._._.
 72
65
 73
4
 40
12.699999999999999
 49
6.3499999999999996
 74
0
 49
-3.1749999999999998
 74
0
 49
0.0
 74
0
 49
-3.1749999999999998
 74
0
  0
LTYPE
  5
45
100
AcDbSymbolTableRecord
100
AcDbLinetypeTableRecord
  2
ACAD_ISO12W100
 70
0
  3
ISO dash double-dot __ . . __ . . __ . . __ . . 
 72
65
 73
6
 40
21.0
 49
12.0
 74
0
 49
-3.0
 74
0
 49
0.0
 74
0
 49
-3.0
 74
0
 49
0.0
 74
0
 49
-3.0
 74
0
  0
LTYPE
  5
46
100
AcDbSymbolTableRecord
100
AcDbLinetypeTableRecord
  2
ACAD_ISO07W100
 70
0
  3
ISO dot . . . . . . . . . . . . . . . . . . . . 
 72
65
 73
2
 40
3.0
 49
0.0
 74
0
 49
-3.0
 74
0
  0
LTYPE
  5
47
100
AcDbSymbolTableRecord
100
AcDbLinetypeTableRecord
  2
ACAD_ISO06W100
 70
0
  3
ISO long-dash triple-dot ____ ... ____ ... ____
 72
65
 73
8
 40
36.0
 49
24.0
 74
0
 49
-3.0
 74
0
 49
0.0
 74
0
 49
-3.0
 74
0
 49
0.0
 74
0
 49
-3.0
 74
0
 49
0.0
 74
0
 49
-3.0
 74
0
  0
LTYPE
  5
48
100
AcDbSymbolTableRecord
100
AcDbLinetypeTableRecord
  2
CENTER
 70
0
  3
Center ____ _ ____ _ ____ _ ____ _ ____ _ ____
 72
65
 73
4
 40
50.800000000000004
 49
31.75
 74
0
 49
-6.3499999999999996
 74
0
 49
6.3499999999999996
 74
0
 49
-6.3499999999999996
 74
0
  0
LTYPE
  5
49
100
AcDbSymbolTableRecord
100
AcDbLinetypeTableRecord
  2
HIDDEN
 70
0
  3
Hidden __ __ __ __ __ __ __ __ __ __ __ __ __ __
 72
65
 73
2
 40
9.5249999999999986
 49
6.3499999999999996
 74
0
 49
-3.1749999999999998
 74
0
  0
LTYPE
  5
4A
100
AcDbSymbolTableRecord
100
AcDbLinetypeTableRecord
  2
DOTX2
 70
0
  3
Dot (2x) .  .  .  .  .  .  .  .  .  .  .  .  .  .
 72
65
 73
2
 40
12.699999999999999
 49
0.0
 74
0
 49
-12.699999999999999
 74
0
  0
LTYPE
  5
4B
100
AcDbSymbolTableRecord
100
AcDbLinetypeTableRecord
  2
PHANTOM
 70
0
  3
Phantom ______  __  __  ______  __  __  ______ 
 72
65
 73
6
 40
63.500000000000007
 49
31.75
 74
0
 49
-6.3499999999999996
 74
0
 49
6.3499999999999996
 74
0
 49
-6.3499999999999996
 74
0
 49
6.3499999999999996
 74
0
 49
-6.3499999999999996
 74
0
  0
LTYPE
  5
4C
100
AcDbSymbolTableRecord
100
AcDbLinetypeTableRecord
  2
ACAD_ISO08W100
 70
0
  3
ISO long-dash short-dash ____ __ ____ __ ____ _
 72
65
 73
4
 40
36.0
 49
24.0
 74
0
 49
-3.0
 74
0
 49
6.0
 74
0
 49
-3.0
 74
0
  0
LTYPE
  5
4D
100
AcDbSymbolTableRecord
100
AcDbLinetypeTableRecord
  2
DASHEDX2
 70
0
  3
Dashed (2x) ____  ____  ____  ____  ____  ___
 72
65
 73
2
 40
38.099999999999994
 49
25.399999999999999
 74
0
 49
-12.699999999999999
 74
0
  0
LTYPE
  5
4E
100
AcDbSymbolTableRecord
100
AcDbLinetypeTableRecord
  2
DRAINAGE
 70
0
  3
Drainage ---->---->---->----
 72
65
 73
2
 40
10.16
 49
5.0800000000000001
 74
0
 49
5.0800000000000001
 74
0
  0
LTYPE
  5
4F
100
AcDbSymbolTableRecord
100
AcDbLinetypeTableRecord
  2
ACAD_ISO02W100
 70
0
  3
ISO dash __ __ __ __ __ __ __ __ __ __ __ __ __
 72
65
 73
2
 40
15.0
 49
12.0
 74
0
 49
-3.0
 74
0
  0
LTYPE
  5
50
100
AcDbSymbolTableRecord
100
AcDbLinetypeTableRecord
  2
PHANTOM2
 70
0
  3
Phantom (.5x) ___ _ _ ___ _ _ ___ _ _ ___ _ _
 72
65
 73
6
 40
31.750000000000004
 49
15.875
 74
0
 49
-3.1749999999999998
 74
0
 49
3.1749999999999998
 74
0
 49
-3.1749999999999998
 74
0
 49
3.1749999999999998
 74
0
 49
-3.1749999999999998
 74
0
  0
LTYPE
  5
51
100
AcDbSymbolTableRecord
100
AcDbLinetypeTableRecord
  2
DASHED2
 70
0
  3
Dashed (.5x) _ _ _ _ _ _ _ _ _ _ _ _ _ _ _ _ _ 
 72
65
 73
2
 40
9.5249999999999986
 49
6.3499999999999996
 74
0
 49
-3.1749999999999998
 74
0
  0
LTYPE
  5
52
100
AcDbSymbolTableRecord
100
AcDbLinetypeTableRecord
  2
ACAD_ISO09W100
 70
0
  3
ISO long-dash double-short-dash ____ __ __ ____
 72
65
 73
6
 40
45.0
 49
24.0
 74
0
 49
-3.0
 74
0
 49
6.0
 74
0
 49
-3.0
 74
0
 49
6.0
 74
0
 49
-3.0
 74
0
  0
LTYPE
  5
53
100
AcDbSymbolTableRecord
100
AcDbLinetypeTableRecord
  2
ACAD_ISO13W100
 70
0
  3
ISO double-dash double-dot __ __ . . __ __ . . _
 72
65
 73
8
 40
36.0
 49
12.0
 74
0
 49
-3.0
 74
0
 49
12.0
 74
0
 49
-3.0
 74
0
 49
0.0
 74
0
 49
-3.0
 74
0
 49
0.0
 74
0
 49
-3.0
 74
0
  0
LTYPE
  5
54
100
AcDbSymbolTableRecord
100
AcDbLinetypeTableRecord
  2
TRACKS
 70
0
  3
Tracks -|-|-|-|-|-|-|-|-|-|-|-|-|-|-|-|-|-|-|-|-|-|-|-|-
 72
65
 73
2
 40
7.6200000000000001
 49
3.8100000000000001
 74
0
 49
3.8100000000000001
 74
0
  0
LTYPE
  5
55
100
AcDbSymbolTableRecord
100
AcDbLinetypeTableRecord
  2
DRAINAGE2
 70
0
  3
Drainage reversed----<----<----<----
 72
65
 73
2
 40
10.16
 49
5.0800000000000001
 74
0
 49
5.0800000000000001
 74
0
  0
LTYPE
  5
56
100
AcDbSymbolTableRecord
100
AcDbLinetypeTableRecord
  2
DOT2
 70
0
  3
Dot (.5x) ........................................
 72
65
 73
2
 40
3.1749999999999998
 49
0.0
 74
0
 49
-3.1749999999999998
 74
0
  0
LTYPE
  5
57
100
AcDbSymbolTableRecord
100
AcDbLinetypeTableRecord
  2
ZIGZAG
 70
0
  3
Zig zag /\/\/\/\/\/\/\/\/\/\/\/\/\/\/\/\/\/\/\/\/\/\/\/
 72
65
 73
4
 40
20.32254
 49
0.00254
 74
0
 49
-5.0800000000000001
 74
0
 49
-10.16
 74
0
 49
-5.0800000000000001
 74
0
  0
LTYPE
  5
58
100
AcDbSymbolTableRecord
100
AcDbLinetypeTableRecord
  2
DASHED
 70
0
  3
Dashed __ __ __ __ __ __ __ __ __ __ __ __ __ _
 72
65
 73
2
 40
19.049999999999997
 49
12.699999999999999
 74
0
 49
-6.3499999999999996
 74
0
  0
LTYPE
  5
59
100
AcDbSymbolTableRecord
100
AcDbLinetypeTableRecord
  2
ACAD_ISO14W100
 70
0
  3
ISO dash triple-dot __ . . . __ . . . __ . . . _
 72
65
 73
8
 40
24.0
 49
12.0
 74
0
 49
-3.0
 74
0
 49
0.0
 74
0
 49
-3.0
 74
0
 49
0.0
 74
0
 49
-3.0
 74
0
 49
0.0
 74
0
 49
-3.0
 74
0
  0
LTYPE
  5
15
100
AcDbSymbolTableRecord
100
AcDbLinetypeTableRecord
  2
BYLAYER
 70
0
  3

 72
65
 73
0
 40
0.0
  0
LTYPE
  5
5A
100
AcDbSymbolTableRecord
100
AcDbLinetypeTableRecord
  2
PHANTOMX2
 70
0
  3
Phantom (2x) ____________    ____    ____   _
 72
65
 73
6
 40
127.00000000000001
 49
63.5
 74
0
 49
-12.699999999999999
 74
0
 49
12.699999999999999
 74
0
 49
-12.699999999999999
 74
0
 49
12.699999999999999
 74
0
 49
-12.699999999999999
 74
0
  0
LTYPE
  5
14
100
AcDbSymbolTableRecord
100
AcDbLinetypeTableRecord
  2
BYBLOCK
 70
0
  3

 72
65
 73
0
 40
0.0
  0
LTYPE
  5
5B
100
AcDbSymbolTableRecord
100
AcDbLinetypeTableRecord
  2
DIVIDEX2
 70
0
  3
Divide (2x) ________  .  .  ________  .  .  _
 72
65
 73
6
 40
63.5
 49
25.399999999999999
 74
0
 49
-12.699999999999999
 74
0
 49
0.0
 74
0
 49
-12.699999999999999
 74
0
 49
0.0
 74
0
 49
-12.699999999999999
 74
0
  0
LTYPE
  5
5C
100
AcDbSymbolTableRecord
100
AcDbLinetypeTableRecord
  2
BORDER
 70
0
  3
Border __ __ . __ __ . __ __ . __ __ . __ __ .
 72
65
 73
6
 40
44.449999999999996
 49
12.699999999999999
 74
0
 49
-6.3499999999999996
 74
0
 49
12.699999999999999
 74
0
 49
-6.3499999999999996
 74
0
 49
0.0
 74
0
 49
-6.3499999999999996
 74
0
  0
LTYPE
  5
5D
100
AcDbSymbolTableRecord
100
AcDbLinetypeTableRecord
  2
DIVIDE2
 70
0
  3
Divide (.5x) __..__..__..__..__..__..__..__.._
 72
65
 73
6
 40
15.875
 49
6.3499999999999996
 74
0
 49
-3.1749999999999998
 74
0
 49
0.0
 74
0
 49
-3.1749999999999998
 74
0
 49
0.0
 74
0
 49
-3.1749999999999998
 74
0
  0
LTYPE
  5
5E
100
AcDbSymbolTableRecord
100
AcDbLinetypeTableRecord
  2
DOT
 70
0
  3
Dot . . . . . . . . . . . . . . . . . . . . . . . .
 72
65
 73
2
 40
6.3499999999999996
 49
0.0
 74
0
 49
-6.3499999999999996
 74
0
  0
LTYPE
  5
5F
100
AcDbSymbolTableRecord
100
AcDbLinetypeTableRecord
  2
DASHDOT
 70
0
  3
Dash dot __ . __ . __ . __ . __ . __ . __ . __
 72
65
 73
4
 40
25.399999999999999
 49
12.699999999999999
 74
0
 49
-6.3499999999999996
 74
0
 49
0.0
 74
0
 49
-6.3499999999999996
 74
0
  0
LTYPE
  5
60
100
AcDbSymbolTableRecord
100
AcDbLinetypeTableRecord
  2
FENCELINE1
 70
0
  3
Fenceline circle ----0-----0----0-----0----0-----0--
 72
65
 73
4
 40
36.829999999999998
 49
6.3499999999999996
 74
0
 49
-2.54
 74
0
 49
-2.54
 74
0
 49
25.399999999999999
 74
0
  0
LTYPE
  5
61
100
AcDbSymbolTableRecord
100
AcDbLinetypeTableRecord
  2
BATTING
 70
0
  3
Batting SSSSSSSSSSSSSSSSSSSSSSSSSSSSSSSSSSSSSSSSSSSSSSS
 72
65
 73
4
 40
10.16254
 49
0.00254
 74
0
 49
-2.54
 74
0
 49
-5.0800000000000001
 74
0
 49
-2.54
 74
0
  0
LTYPE
  5
62
100
AcDbSymbolTableRecord
100
AcDbLinetypeTableRecord
  2
ACAD_ISO03W100
 70
0
  3
ISO dash space __    __    __    __    __    __
 72
65
 73
2
 40
30.0
 49
12.0
 74
0
 49
-18.0
 74
0
  0
LTYPE
  5
63
100
AcDbSymbolTableRecord
100
AcDbLinetypeTableRecord
  2
FENCELINE2
 70
0
  3
Fenceline square ----[]-----[]----[]-----[]----[]---
 72
65
 73
4
 40
36.829999999999998
 49
6.3499999999999996
 74
0
 49
-2.54
 74
0
 49
-2.54
 74
0
 49
25.399999999999999
 74
0
  0
ENDTAB
  0
TABLE
  2
LAYER
  5
2
100
AcDbSymbolTable
 70
1
  0
LAYER
  5
10
100
AcDbSymbolTableRecord
100
AcDbLayerTableRecord
  2
0
 70
0
 62
7
420
16777215
  6
Continuous
370
25
390
F
  0
ENDTAB
  0
TABLE
  2
STYLE
  5
3
100
AcDbSymbolTable
 70
1
  0
STYLE
  5
64
100
AcDbSymbolTableRecord
100
AcDbTextStyleTableRecord
  2
Standard
 70
0
 40
0.0
 41
1.0
 50
0.0
 71
0
 42
2.5
  3

  4

1001
ACAD
1000
txt
1071
0
  0
ENDTAB
  0
TABLE
  2
VIEW
  5
6
100
AcDbSymbolTable
 70
0
  0
ENDTAB
  0
TABLE
  2
UCS
  5
7
100
AcDbSymbolTable
 70
0
  0
ENDTAB
  0
TABLE
  2
APPID
  5
9
100
AcDbSymbolTable
 70
1
  0
APPID
  5
12
100
AcDbSymbolTableRecord
100
AcDbRegAppTableRecord
  2
ACAD
 70
0
  0
APPID
  5
65
100
AcDbSymbolTableRecord
100
AcDbRegAppTableRecord
  2
QCAD
 70
0
  0
ENDTAB
  0
TABLE
  2
DIMSTYLE
  5
A
100
AcDbSymbolTable
 70
1
100
AcDbDimStyleTable
 71
0
  0
DIMSTYLE
105
27
100
AcDbSymbolTableRecord
100
AcDbDimStyleTableRecord
  2
Standard
 41
2.5
 42
0.625
 43
3.75
 44
1.25
 70
0
 73
0
 74
0
 77
1
 78
8
140
2.5
141
2.5
143
0.03937007874016
147
0.625
171
3
172
1
271
2
272
2
274
3
278
44
283
0
284
8
340
64
  0
ENDTAB
  0
TABLE
  2
BLOCK_RECORD
  5
1
100
AcDbSymbolTable
 70
1
  0
BLOCK_RECORD
  5
1F
100
AcDbSymbolTableRecord
100
AcDbBlockTableRecord
  2
*Model_Space
340
22
  0
BLOCK_RECORD
  5
1B
100
AcDbSymbolTableRecord
100
AcDbBlockTableRecord
  2
*Paper_Space
340
1E
  0
BLOCK_RECORD
  5
23
100
AcDbSymbolTableRecord
100
AcDbBlockTableRecord
  2
*Paper_Space0
340
26
  0
ENDTAB
  0
ENDSEC
  0
SECTION
  2
BLOCKS
  0
BLOCK
  5
20
100
AcDbEntity
  8
0
100
AcDbBlockBegin
  2
*Model_Space
 70
0
 10
0.0
 20
0.0
 30
0.0
  3
*Model_Space
  1

  0
ENDBLK
  5
21
100
AcDbEntity
  8
0
100
AcDbBlockEnd
  0
BLOCK
  5
1C
100
AcDbEntity
 67
1
  8
0
100
AcDbBlockBegin
  2
*Paper_Space
 70
0
 10
0.0
 20
0.0
 30
0.0
  3
*Paper_Space
  1

  0
ENDBLK
  5
1D
100
AcDbEntity
 67
1
  8
0
100
AcDbBlockEnd
  0
BLOCK
  5
24
100
AcDbEntity
  8
0
100
AcDbBlockBegin
  2
*Paper_Space0
 70
0
 10
0.0
 20
0.0
 30
0.0
  3
*Paper_Space0
  1

  0
ENDBLK
  5
25
100
AcDbEntity
  8
0
100
AcDbBlockEnd
  0
ENDSEC
  0
SECTION
  2
ENTITIES
  0
LINE
  5
66
100
AcDbEntity
100
AcDbLine
  8
0
 62
256
370
-1
 48
1.0
  6
BYLAYER
 10
33.541019662496865
 20
200.0
 30
0.0
 11
0.0
 21
200.0
 31
0.0
  0
LINE
  5
67
100
AcDbEntity
100
AcDbLine
  8
0
 62
256
370
-1
 48
1.0
  6
BYLAYER
 10
600.0
 20
200.0
 30
0.0
 11
566.45898033750314
 21
200.0
 31
0.0
  0
LINE
  5
68
100
AcDbEntity
100
AcDbLine
  8
0
 62
256
370
-1
 48
1.0
  6
BYLAYER
 10
0.0
 20
200.0
 30
0.0
 11
37.485562705416442
 21
293.71390676354105
 31
0.0
  0
LINE
  5
69
100
AcDbEntity
100
AcDbLine
  8
0
 62
256
370
-1
 48
1.0
  6
BYLAYER
 10
562.51443729458356
 20
293.71390676354099
 30
0.0
 11
600.0
 21
200.0
 31
0.0
  0
LINE
  5
6A
100
AcDbEntity
100
AcDbLine
  8
0
 62
256
370
-1
 48
1.0
  6
BYLAYER
 10
33.541019662496865
 20
200.0
 30
0.0
 11
63.026581610557287
 21
273.71390668472782
 31
0.0
  0
LINE
  5
6B
100
AcDbEntity
100
AcDbLine
  8
0
 62
256
370
-1
 48
1.0
  6
BYLAYER
 10
536.97341838944271
 20
273.71390668472782
 30
0.0
 11
566.45898033750314
 21
200.0
 31
0.0
  0
LINE
  5
6C
100
AcDbEntity
100
AcDbLine
  8
0
 62
256
370
-1
 48
1.0
  6
BYLAYER
 10
65.541018874769563
 20
80.0
 30
0.0
 11
534.45898112523048
 21
80.0
 31
0.0
  0
LINE
  5
6D
100
AcDbEntity
100
AcDbLine
  8
0
 62
256
370
-1
 48
1.0
  6
BYLAYER
 10
72.311348550935236
 20
280.0
 30
0.0
 11
527.68865144906476
 21
280.0
 31
0.0
  0
LINE
  5
6E
100
AcDbEntity
100
AcDbLine
  8
0
 62
256
370
-1
 48
1.0
  6
BYLAYER
 10
46.770329614269031
 20
300.0
 30
0.0
 11
553.22967038573097
 21
300.0
 31
0.0
  0
ARC
  5
6F
100
AcDbEntity
  8
0
 62
256
370
-1
 48
1.0
  6
BYLAYER
100
AcDbCircle
 10
46.770329614269031
 20
290.0
 30
0.0
 40
10.0
100
AcDbArc
 50
90.0
 51
158.19859051364813
  0
ARC
  5
70
100
AcDbEntity
  8
0
 62
256
370
-1
 48
1.0
  6
BYLAYER
100
AcDbCircle
 10
553.22967038573097
 20
290.0
 30
0.0
 40
10.0
100
AcDbArc
 50
21.801409486351833
 51
90.0
  0
ARC
  5
71
100
AcDbEntity
  8
0
 62
256
370
-1
 48
1.0
  6
BYLAYER
100
AcDbCircle
 10
72.311348550935236
 20
270.0
 30
0.0
 40
10.0
100
AcDbArc
 50
90.0
 51
158.19859100000016
  0
ARC
  5
72
100
AcDbEntity
  8
0
 62
256
370
-1
 48
1.0
  6
BYLAYER
100
AcDbCircle
 10
527.68865144906476
 20
270.0
 30
0.0
 40
10.0
100
AcDbArc
 50
21.801408999999904
 51
90.000000000000639
  0
LINE
  5
73
100
AcDbEntity
100
AcDbLine
  8
0
 62
256
370
-1
 48
1.0
  6
BYLAYER
 10
-320.00000000000017
 20
-0.0000015279194514
 30
0.0
 11
-319.99999987372757
 21
14.875822507752943
 31
0.0
  0
LINE
  5
74
100
AcDbEntity
100
AcDbLine
  8
0
 62
256
370
-1
 48
1.0
  6
BYLAYER
 10
-500.0
 20
0.0
 30
0.0
 11
-499.9999998737274
 21
14.875824035672359
 31
0.0
  0
LINE
  5
75
100
AcDbEntity
100
AcDbLine
  8
0
 62
256
370
-1
 48
1.0
  6
BYLAYER
 10
8.6162636914152699
 20
-0.0000000000000568
 30
0.0
 11
14.141006041348305
 21
13.811855874832403
 31
0.0
  0
LINE
  5
76
100
AcDbEntity
100
AcDbLine
  8
0
 62
256
370
-1
 48
1.0
  6
BYLAYER
 10
591.38373630858473
 20
0.0
 30
0.0
 11
585.85899395865169
 21
13.811855874832622
 31
0.0
  0
LINE
  5
77
100
AcDbEntity
100
AcDbLine
  8
0
 62
256
370
-1
 48
1.0
  6
BYLAYER
 10
-319.99999987372757
 20
14.875822507752943
 30
0.0
 11
-315.99999987372752
 21
14.875822473799417
 31
0.0
  0
LINE
  5
78
100
AcDbEntity
100
AcDbLine
  8
0
 62
256
370
-1
 48
1.0
  6
BYLAYER
 10
-499.9999998737274
 20
14.875824035672359
 30
0.0
 11
-503.99999987372746
 21
14.87582406962634
 31
0.0
  0
LINE
  5
79
100
AcDbEntity
100
AcDbLine
  8
0
 62
256
370
-1
 48
1.0
  6
BYLAYER
 10
14.141006041348305
 20
13.811855874832403
 30
0.0
 11
10.427099277807315
 21
15.29741858024903
 31
0.0
  0
LINE
  5
7A
100
AcDbEntity
100
AcDbLine
  8
0
 62
256
370
-1
 48
1.0
  6
BYLAYER
 10
585.85899395865169
 20
13.811855874832622
 30
0.0
 11
589.57290072219268
 21
15.297418580249037
 31
0.0
  0
LINE
  5
7B
100
AcDbEntity
100
AcDbLine
  8
0
 62
256
370
-1
 48
1.0
  6
BYLAYER
 10
-315.99999987372752
 20
14.875822473799417
 30
0.0
 11
-315.99999974640087
 21
29.875822473799616
 31
0.0
  0
LINE
  5
7C
100
AcDbEntity
100
AcDbLine
  8
0
 62
256
370
-1
 48
1.0
  6
BYLAYER
 10
-503.99999987372746
 20
14.87582406962634
 30
0.0
 11
-503.99999974640087
 21
29.875824069626553
 31
0.0
  0
LINE
  5
7D
100
AcDbEntity
100
AcDbLine
  8
0
 62
256
370
-1
 48
1.0
  6
BYLAYER
 10
10.427099277807315
 20
15.29741858024903
 30
0.0
 11
15.997959423118914
 21
29.224568943528126
 31
0.0
  0
LINE
  5
7E
100
AcDbEntity
100
AcDbLine
  8
0
 62
256
370
-1
 48
1.0
  6
BYLAYER
 10
589.57290072219268
 20
15.297418580249037
 30
0.0
 11
584.00204057688109
 21
29.224568943527927
 31
0.0
  0
LINE
  5
7F
100
AcDbEntity
100
AcDbLine
  8
0
 62
256
370
-1
 48
1.0
  6
BYLAYER
 10
-315.99999974640087
 20
29.875822473799616
 30
0.0
 11
-319.99999974640087
 21
29.87582250775317
 31
0.0
  0
LINE
  5
80
100
AcDbEntity
100
AcDbLine
  8
0
 62
256
370
-1
 48
1.0
  6
BYLAYER
 10
-503.99999974640087
 20
29.875824069626553
 30
0.0
 11
-499.99999974640082
 21
29.875824035672501
 31
0.0
  0
LINE
  5
81
100
AcDbEntity
100
AcDbLine
  8
0
 62
256
370
-1
 48
1.0
  6
BYLAYER
 10
15.997959423118914
 20
29.224568943528126
 30
0.0
 11
19.711866186659904
 21
27.739006238111429
 31
0.0
  0
LINE
  5
82
100
AcDbEntity
100
AcDbLine
  8
0
 62
256
370
-1
 48
1.0
  6
BYLAYER
 10
584.00204057688109
 20
29.224568943527927
 30
0.0
 11
580.2881338133401
 21
27.739006238111514
 31
0.0
  0
LINE
  5
83
100
AcDbEntity
100
AcDbLine
  8
0
 62
256
370
-1
 48
1.0
  6
BYLAYER
 10
-319.99999974640087
 20
29.87582250775317
 30
0.0
 11
-319.99999962012828
 21
44.751646543425764
 31
0.0
  0
LINE
  5
84
100
AcDbEntity
100
AcDbLine
  8
0
 62
256
370
-1
 48
1.0
  6
BYLAYER
 10
-499.99999974640082
 20
29.875824035672501
 30
0.0
 11
-499.99999962012834
 21
44.751648071345137
 31
0.0
  0
LINE
  5
85
100
AcDbEntity
100
AcDbLine
  8
0
 62
256
370
-1
 48
1.0
  6
BYLAYER
 10
19.711866186659904
 20
27.739006238111429
 30
0.0
 11
25.236608536592939
 21
41.550862112944181
 31
0.0
  0
LINE
  5
86
100
AcDbEntity
100
AcDbLine
  8
0
 62
256
370
-1
 48
1.0
  6
BYLAYER
 10
580.2881338133401
 20
27.739006238111514
 30
0.0
 11
574.76339146340706
 21
41.550862112944138
 31
0.0
  0
LINE
  5
87
100
AcDbEntity
100
AcDbLine
  8
0
 62
256
370
-1
 48
1.0
  6
BYLAYER
 10
-319.99999962012828
 20
44.751646543425764
 30
0.0
 11
-315.99999962012828
 21
44.75164650947211
 31
0.0
  0
LINE
  5
88
100
AcDbEntity
100
AcDbLine
  8
0
 62
256
370
-1
 48
1.0
  6
BYLAYER
 10
-499.99999962012834
 20
44.751648071345137
 30
0.0
 11
-503.99999962012834
 21
44.751648105299033
 31
0.0
  0
LINE
  5
89
100
AcDbEntity
100
AcDbLine
  8
0
 62
256
370
-1
 48
1.0
  6
BYLAYER
 10
25.236608536592939
 20
41.550862112944181
 30
0.0
 11
21.522701773051949
 21
43.036424818360715
 31
0.0
  0
LINE
  5
8A
100
AcDbEntity
100
AcDbLine
  8
0
 62
256
370
-1
 48
1.0
  6
BYLAYER
 10
574.76339146340706
 20
41.550862112944138
 30
0.0
 11
578.47729822694805
 21
43.036424818360551
 31
0.0
  0
LINE
  5
8B
100
AcDbEntity
100
AcDbLine
  8
0
 62
256
370
-1
 48
1.0
  6
BYLAYER
 10
-315.99999962012828
 20
44.75164650947211
 30
0.0
 11
-315.99999949280181
 21
59.751646509471968
 31
0.0
  0
LINE
  5
8C
100
AcDbEntity
100
AcDbLine
  8
0
 62
256
370
-1
 48
1.0
  6
BYLAYER
 10
-503.99999962012834
 20
44.751648105299033
 30
0.0
 11
-503.99999949280158
 21
59.75164810529882
 31
0.0
  0
LINE
  5
8D
100
AcDbEntity
100
AcDbLine
  8
0
 62
256
370
-1
 48
1.0
  6
BYLAYER
 10
21.522701773051949
 20
43.036424818360715
 30
0.0
 11
27.093561918363548
 21
56.963575181639371
 31
0.0
  0
LINE
  5
8E
100
AcDbEntity
100
AcDbLine
  8
0
 62
256
370
-1
 48
1.0
  6
BYLAYER
 10
578.47729822694805
 20
43.036424818360551
 30
0.0
 11
572.90643808163645
 21
56.963575181639442
 31
0.0
  0
LINE
  5
8F
100
AcDbEntity
100
AcDbLine
  8
0
 62
256
370
-1
 48
1.0
  6
BYLAYER
 10
-315.99999949280181
 20
59.751646509471968
 30
0.0
 11
-319.99999949280175
 21
59.751646543425608
 31
0.0
  0
LINE
  5
90
100
AcDbEntity
100
AcDbLine
  8
0
 62
256
370
-1
 48
1.0
  6
BYLAYER
 10
-503.99999949280158
 20
59.75164810529882
 30
0.0
 11
-499.99999949280163
 21
59.751648071345038
 31
0.0
  0
LINE
  5
91
100
AcDbEntity
100
AcDbLine
  8
0
 62
256
370
-1
 48
1.0
  6
BYLAYER
 10
27.093561918363548
 20
56.963575181639371
 30
0.0
 11
30.807468681904538
 21
55.478012476222943
 31
0.0
  0
LINE
  5
92
100
AcDbEntity
100
AcDbLine
  8
0
 62
256
370
-1
 48
1.0
  6
BYLAYER
 10
572.90643808163645
 20
56.963575181639442
 30
0.0
 11
569.19253131809546
 21
55.478012476223029
 31
0.0
  0
LINE
  5
93
100
AcDbEntity
100
AcDbLine
  8
0
 62
256
370
-1
 48
1.0
  6
BYLAYER
 10
-319.99999949280175
 20
59.751646543425608
 30
0.0
 11
-319.99999936652887
 21
74.627470579098969
 31
0.0
  0
LINE
  5
94
100
AcDbEntity
100
AcDbLine
  8
0
 62
256
370
-1
 48
1.0
  6
BYLAYER
 10
-499.99999949280163
 20
59.751648071345038
 30
0.0
 11
-499.99999936652944
 21
74.627472107018377
 31
0.0
  0
LINE
  5
95
100
AcDbEntity
100
AcDbLine
  8
0
 62
256
370
-1
 48
1.0
  6
BYLAYER
 10
30.807468681904538
 20
55.478012476222943
 30
0.0
 11
36.332211031837574
 21
69.289868351056469
 31
0.0
  0
LINE
  5
96
100
AcDbEntity
100
AcDbLine
  8
0
 62
256
370
-1
 48
1.0
  6
BYLAYER
 10
569.19253131809546
 20
55.478012476223029
 30
0.0
 11
563.66778896816243
 21
69.289868351055645
 31
0.0
  0
LINE
  5
97
100
AcDbEntity
100
AcDbLine
  8
0
 62
256
370
-1
 48
1.0
  6
BYLAYER
 10
-319.99999936652887
 20
74.627470579098969
 30
0.0
 11
-315.99999936652955
 21
74.627470545143638
 31
0.0
  0
LINE
  5
98
100
AcDbEntity
100
AcDbLine
  8
0
 62
256
370
-1
 48
1.0
  6
BYLAYER
 10
-499.99999936652944
 20
74.627472107018377
 30
0.0
 11
-503.99999936652875
 21
74.627472140970553
 31
0.0
  0
LINE
  5
99
100
AcDbEntity
100
AcDbLine
  8
0
 62
256
370
-1
 48
1.0
  6
BYLAYER
 10
36.332211031837574
 20
69.289868351056469
 30
0.0
 11
32.618304268296583
 21
70.775431056471163
 31
0.0
  0
LINE
  5
9A
100
AcDbEntity
100
AcDbLine
  8
0
 62
256
370
-1
 48
1.0
  6
BYLAYER
 10
563.66778896816243
 20
69.289868351055645
 30
0.0
 11
567.38169573170342
 21
70.775431056472058
 31
0.0
  0
LINE
  5
9B
100
AcDbEntity
100
AcDbLine
  8
0
 62
256
370
-1
 48
1.0
  6
BYLAYER
 10
-315.99999936652955
 20
74.627470545143638
 30
0.0
 11
-315.99999923920262
 21
89.627470545144433
 31
0.0
  0
LINE
  5
9C
100
AcDbEntity
100
AcDbLine
  8
0
 62
256
370
-1
 48
1.0
  6
BYLAYER
 10
-503.99999936652875
 20
74.627472140970553
 30
0.0
 11
-503.99999923920245
 21
89.627472140971463
 31
0.0
  0
LINE
  5
9D
100
AcDbEntity
100
AcDbLine
  8
0
 62
256
370
-1
 48
1.0
  6
BYLAYER
 10
32.618304268296583
 20
70.775431056471163
 30
0.0
 11
38.189164413608182
 21
84.702581419750999
 31
0.0
  0
LINE
  5
9E
100
AcDbEntity
100
AcDbLine
  8
0
 62
256
370
-1
 48
1.0
  6
BYLAYER
 10
567.38169573170342
 20
70.775431056472058
 30
0.0
 11
561.81083558639182
 21
84.702581419750942
 31
0.0
  0
LINE
  5
9F
100
AcDbEntity
100
AcDbLine
  8
0
 62
256
370
-1
 48
1.0
  6
BYLAYER
 10
-315.99999923920262
 20
89.627470545144433
 30
0.0
 11
-319.99999923920291
 21
89.627470579097391
 31
0.0
  0
LINE
  5
A0
100
AcDbEntity
100
AcDbLine
  8
0
 62
256
370
-1
 48
1.0
  6
BYLAYER
 10
-503.99999923920245
 20
89.627472140971463
 30
0.0
 11
-499.99999923920217
 21
89.627472107016843
 31
0.0
  0
LINE
  5
A1
100
AcDbEntity
100
AcDbLine
  8
0
 62
256
370
-1
 48
1.0
  6
BYLAYER
 10
38.189164413608182
 20
84.702581419750999
 30
0.0
 11
41.903071177149172
 21
83.21701871433369
 31
0.0
  0
LINE
  5
A2
100
AcDbEntity
100
AcDbLine
  8
0
 62
256
370
-1
 48
1.0
  6
BYLAYER
 10
561.81083558639182
 20
84.702581419750942
 30
0.0
 11
558.09692882285083
 21
83.217018714334529
 31
0.0
  0
LINE
  5
A3
100
AcDbEntity
100
AcDbLine
  8
0
 62
256
370
-1
 48
1.0
  6
BYLAYER
 10
-319.99999923920291
 20
89.627470579097391
 30
0.0
 11
-319.99999917719026
 21
96.932965000501866
 31
0.0
  0
LINE
  5
A4
100
AcDbEntity
100
AcDbLine
  8
0
 62
256
370
-1
 48
1.0
  6
BYLAYER
 10
-499.99999923920217
 20
89.627472107016843
 30
0.0
 11
-499.99999917719026
 21
96.932966528421275
 31
0.0
  0
LINE
  5
A5
100
AcDbEntity
100
AcDbLine
  8
0
 62
256
370
-1
 48
1.0
  6
BYLAYER
 10
41.903071177149172
 20
83.21701871433369
 30
0.0
 11
44.616263691415384
 21
90.000000000000099
 31
0.0
  0
LINE
  5
A6
100
AcDbEntity
100
AcDbLine
  8
0
 62
256
370
-1
 48
1.0
  6
BYLAYER
 10
558.09692882285083
 20
83.217018714334529
 30
0.0
 11
555.38373630858462
 21
90.000000000000014
 31
0.0
  0
LINE
  5
A7
100
AcDbEntity
100
AcDbLine
  8
0
 62
256
370
-1
 48
1.0
  6
BYLAYER
 10
-20.000000000000071
 20
56.918681689201236
 30
0.0
 11
-20.000000000000156
 21
67.20934084460059
 31
0.0
  0
LINE
  5
A8
100
AcDbEntity
100
AcDbLine
  8
0
 62
256
370
-1
 48
1.0
  6
BYLAYER
 10
-200.0
 20
56.918681689201243
 30
0.0
 11
-199.99999999999991
 21
67.209340844600618
 31
0.0
  0
LINE
  5
A9
100
AcDbEntity
100
AcDbLine
  8
0
 62
256
370
-1
 48
1.0
  6
BYLAYER
 10
33.541019662496808
 20
0.0000000000000142
 30
0.0
 11
37.362874445246234
 21
9.5546371920748783
 31
0.0
  0
LINE
  5
AA
100
AcDbEntity
100
AcDbLine
  8
0
 62
256
370
-1
 48
1.0
  6
BYLAYER
 10
566.45898033750314
 20
0.0
 30
0.0
 11
562.63712555475377
 21
9.5546371920748925
 31
0.0
  0
LINE
  5
AB
100
AcDbEntity
100
AcDbLine
  8
0
 62
256
370
-1
 48
1.0
  6
BYLAYER
 10
-20.000000000000156
 20
67.20934084460059
 30
0.0
 11
-16.000000000000199
 21
67.209340844600504
 31
0.0
  0
LINE
  5
AC
100
AcDbEntity
100
AcDbLine
  8
0
 62
256
370
-1
 48
1.0
  6
BYLAYER
 10
-199.99999999999991
 20
67.209340844600618
 30
0.0
 11
-203.99999999999986
 21
67.209340844600504
 31
0.0
  0
LINE
  5
AD
100
AcDbEntity
100
AcDbLine
  8
0
 62
256
370
-1
 48
1.0
  6
BYLAYER
 10
37.362874445246234
 20
9.5546371920748783
 30
0.0
 11
33.6489676690951
 21
11.040199865965889
 31
0.0
  0
LINE
  5
AE
100
AcDbEntity
100
AcDbLine
  8
0
 62
256
370
-1
 48
1.0
  6
BYLAYER
 10
562.63712555475377
 20
9.5546371920748925
 30
0.0
 11
566.3510323309049
 21
11.040199865966029
 31
0.0
  0
LINE
  5
AF
100
AcDbEntity
100
AcDbLine
  8
0
 62
256
370
-1
 48
1.0
  6
BYLAYER
 10
-16.000000000000199
 20
67.209340844600504
 30
0.0
 11
-16.000000000000156
 21
82.20934084460049
 31
0.0
  0
LINE
  5
B0
100
AcDbEntity
100
AcDbLine
  8
0
 62
256
370
-1
 48
1.0
  6
BYLAYER
 10
-203.99999999999986
 20
67.209340844600504
 30
0.0
 11
-203.99999999999989
 21
82.209340844600462
 31
0.0
  0
LINE
  5
B1
100
AcDbEntity
100
AcDbLine
  8
0
 62
256
370
-1
 48
1.0
  6
BYLAYER
 10
33.6489676690951
 20
11.040199865965889
 30
0.0
 11
39.219827696186826
 21
24.96735027653267
 31
0.0
  0
LINE
  5
B2
100
AcDbEntity
100
AcDbLine
  8
0
 62
256
370
-1
 48
1.0
  6
BYLAYER
 10
566.3510323309049
 20
11.040199865966029
 30
0.0
 11
560.78017230381317
 21
24.967350276532837
 31
0.0
  0
LINE
  5
B3
100
AcDbEntity
100
AcDbLine
  8
0
 62
256
370
-1
 48
1.0
  6
BYLAYER
 10
-203.99999999999989
 20
82.209340844600462
 30
0.0
 11
-199.99999999999989
 21
82.209340844600405
 31
0.0
  0
LINE
  5
B4
100
AcDbEntity
100
AcDbLine
  8
0
 62
256
370
-1
 48
1.0
  6
BYLAYER
 10
39.219827696186826
 20
24.96735027653267
 30
0.0
 11
42.93373447233796
 21
23.481787602641468
 31
0.0
  0
LINE
  5
B5
100
AcDbEntity
100
AcDbLine
  8
0
 62
256
370
-1
 48
1.0
  6
BYLAYER
 10
560.78017230381317
 20
24.967350276532837
 30
0.0
 11
557.06626552766204
 21
23.481787602641703
 31
0.0
  0
LINE
  5
B6
100
AcDbEntity
100
AcDbLine
  8
0
 62
256
370
-1
 48
1.0
  6
BYLAYER
 10
-16.000000000000156
 20
82.20934084460049
 30
0.0
 11
-20.000000000000156
 21
82.209340844600433
 31
0.0
  0
LINE
  5
B7
100
AcDbEntity
100
AcDbLine
  8
0
 62
256
370
-1
 48
1.0
  6
BYLAYER
 10
-199.99999999999989
 20
82.209340844600405
 30
0.0
 11
-199.99999999999997
 21
92.500000000000043
 31
0.0
  0
LINE
  5
B8
100
AcDbEntity
100
AcDbLine
  8
0
 62
256
370
-1
 48
1.0
  6
BYLAYER
 10
42.93373447233796
 20
23.481787602641468
 30
0.0
 11
46.75558925508733
 21
33.036424794716652
 31
0.0
  0
LINE
  5
B9
100
AcDbEntity
100
AcDbLine
  8
0
 62
256
370
-1
 48
1.0
  6
BYLAYER
 10
557.06626552766204
 20
23.481787602641703
 30
0.0
 11
553.24441074491267
 21
33.036424794716595
 31
0.0
  0
LINE
  5
BA
100
AcDbEntity
100
AcDbLine
  8
0
 62
256
370
-1
 48
1.0
  6
BYLAYER
 10
-20.000000000000156
 20
82.209340844600433
 30
0.0
 11
-20.000000000000099
 21
92.5
 31
0.0
  0
LINE
  5
BB
100
AcDbEntity
100
AcDbLine
  8
0
 62
256
370
-1
 48
1.0
  6
BYLAYER
 10
-199.99999999999997
 20
92.500000000000043
 30
0.0
 11
-203.99999999999994
 21
92.500000000000057
 31
0.0
  0
LINE
  5
BC
100
AcDbEntity
100
AcDbLine
  8
0
 62
256
370
-1
 48
1.0
  6
BYLAYER
 10
46.75558925508733
 20
33.036424794716652
 30
0.0
 11
43.041682478936195
 21
34.52198746860779
 31
0.0
  0
LINE
  5
BD
100
AcDbEntity
100
AcDbLine
  8
0
 62
256
370
-1
 48
1.0
  6
BYLAYER
 10
553.24441074491267
 20
33.036424794716595
 30
0.0
 11
556.9583175210638
 21
34.521987468607733
 31
0.0
  0
LINE
  5
BE
100
AcDbEntity
100
AcDbLine
  8
0
 62
256
370
-1
 48
1.0
  6
BYLAYER
 10
-20.000000000000099
 20
92.5
 30
0.0
 11
-16.000000000000114
 21
92.500000000000057
 31
0.0
  0
LINE
  5
BF
100
AcDbEntity
100
AcDbLine
  8
0
 62
256
370
-1
 48
1.0
  6
BYLAYER
 10
-203.99999999999994
 20
92.500000000000057
 30
0.0
 11
-204.0
 21
107.50000000000003
 31
0.0
  0
LINE
  5
C0
100
AcDbEntity
100
AcDbLine
  8
0
 62
256
370
-1
 48
1.0
  6
BYLAYER
 10
43.041682478936195
 20
34.52198746860779
 30
0.0
 11
48.612542506027921
 21
48.449137879174586
 31
0.0
  0
LINE
  5
C1
100
AcDbEntity
100
AcDbLine
  8
0
 62
256
370
-1
 48
1.0
  6
BYLAYER
 10
556.9583175210638
 20
34.521987468607733
 30
0.0
 11
551.38745749397208
 21
48.449137879174543
 31
0.0
  0
LINE
  5
C2
100
AcDbEntity
100
AcDbLine
  8
0
 62
256
370
-1
 48
1.0
  6
BYLAYER
 10
-16.000000000000114
 20
92.500000000000057
 30
0.0
 11
-16.000000000000085
 21
107.49999999999997
 31
0.0
  0
LINE
  5
C3
100
AcDbEntity
100
AcDbLine
  8
0
 62
256
370
-1
 48
1.0
  6
BYLAYER
 10
-204.0
 20
107.50000000000003
 30
0.0
 11
-199.99999999999994
 21
107.49999999999984
 31
0.0
  0
LINE
  5
C4
100
AcDbEntity
100
AcDbLine
  8
0
 62
256
370
-1
 48
1.0
  6
BYLAYER
 10
48.612542506027921
 20
48.449137879174586
 30
0.0
 11
52.326449282179055
 21
46.963575205283249
 31
0.0
  0
LINE
  5
C5
100
AcDbEntity
100
AcDbLine
  8
0
 62
256
370
-1
 48
1.0
  6
BYLAYER
 10
551.38745749397208
 20
48.449137879174543
 30
0.0
 11
547.67355071782094
 21
46.963575205283405
 31
0.0
  0
LINE
  5
C6
100
AcDbEntity
100
AcDbLine
  8
0
 62
256
370
-1
 48
1.0
  6
BYLAYER
 10
-16.000000000000085
 20
107.49999999999997
 30
0.0
 11
-20.000000000000099
 21
107.49999999999987
 31
0.0
  0
LINE
  5
C7
100
AcDbEntity
100
AcDbLine
  8
0
 62
256
370
-1
 48
1.0
  6
BYLAYER
 10
-199.99999999999994
 20
107.49999999999984
 30
0.0
 11
-200.0
 21
117.79065915539944
 31
0.0
  0
LINE
  5
C8
100
AcDbEntity
100
AcDbLine
  8
0
 62
256
370
-1
 48
1.0
  6
BYLAYER
 10
52.326449282179055
 20
46.963575205283249
 30
0.0
 11
56.148304064928425
 21
56.518212397358383
 31
0.0
  0
LINE
  5
C9
100
AcDbEntity
100
AcDbLine
  8
0
 62
256
370
-1
 48
1.0
  6
BYLAYER
 10
547.67355071782094
 20
46.963575205283405
 30
0.0
 11
543.85169593507158
 21
56.518212397358297
 31
0.0
  0
LINE
  5
CA
100
AcDbEntity
100
AcDbLine
  8
0
 62
256
370
-1
 48
1.0
  6
BYLAYER
 10
-20.000000000000099
 20
107.49999999999987
 30
0.0
 11
-20.000000000000057
 21
117.79065915539944
 31
0.0
  0
LINE
  5
CB
100
AcDbEntity
100
AcDbLine
  8
0
 62
256
370
-1
 48
1.0
  6
BYLAYER
 10
-200.0
 20
117.79065915539944
 30
0.0
 11
-203.99999999999989
 21
117.79065915539918
 31
0.0
  0
LINE
  5
CC
100
AcDbEntity
100
AcDbLine
  8
0
 62
256
370
-1
 48
1.0
  6
BYLAYER
 10
56.148304064928425
 20
56.518212397358383
 30
0.0
 11
52.434397288777291
 21
58.003775071249237
 31
0.0
  0
LINE
  5
CD
100
AcDbEntity
100
AcDbLine
  8
0
 62
256
370
-1
 48
1.0
  6
BYLAYER
 10
543.85169593507158
 20
56.518212397358297
 30
0.0
 11
547.56560271122271
 21
58.003775071249436
 31
0.0
  0
LINE
  5
CE
100
AcDbEntity
100
AcDbLine
  8
0
 62
256
370
-1
 48
1.0
  6
BYLAYER
 10
-20.000000000000057
 20
117.79065915539944
 30
0.0
 11
-16.000000000000171
 21
117.79065915539918
 31
0.0
  0
LINE
  5
CF
100
AcDbEntity
100
AcDbLine
  8
0
 62
256
370
-1
 48
1.0
  6
BYLAYER
 10
-16.000000000000171
 20
117.79065915539918
 30
0.0
 11
-16.000000000000057
 21
132.79065915539942
 31
0.0
  0
LINE
  5
D0
100
AcDbEntity
100
AcDbLine
  8
0
 62
256
370
-1
 48
1.0
  6
BYLAYER
 10
-203.99999999999989
 20
117.79065915539918
 30
0.0
 11
-204.0
 21
132.79065915539931
 31
0.0
  0
LINE
  5
D1
100
AcDbEntity
100
AcDbLine
  8
0
 62
256
370
-1
 48
1.0
  6
BYLAYER
 10
52.434397288777291
 20
58.003775071249237
 30
0.0
 11
58.005257315869017
 21
71.930925481816203
 31
0.0
  0
LINE
  5
D2
100
AcDbEntity
100
AcDbLine
  8
0
 62
256
370
-1
 48
1.0
  6
BYLAYER
 10
547.56560271122271
 20
58.003775071249436
 30
0.0
 11
541.99474268413098
 21
71.930925481816246
 31
0.0
  0
LINE
  5
D3
100
AcDbEntity
100
AcDbLine
  8
0
 62
256
370
-1
 48
1.0
  6
BYLAYER
 10
-16.000000000000057
 20
132.79065915539942
 30
0.0
 11
-20.000000000000028
 21
132.79065915539934
 31
0.0
  0
LINE
  5
D4
100
AcDbEntity
100
AcDbLine
  8
0
 62
256
370
-1
 48
1.0
  6
BYLAYER
 10
-204.0
 20
132.79065915539931
 30
0.0
 11
-200.00000000000003
 21
132.79065915539937
 31
0.0
  0
LINE
  5
D5
100
AcDbEntity
100
AcDbLine
  8
0
 62
256
370
-1
 48
1.0
  6
BYLAYER
 10
58.005257315869017
 20
71.930925481816203
 30
0.0
 11
61.719164092020151
 21
70.445362807925122
 31
0.0
  0
LINE
  5
D6
100
AcDbEntity
100
AcDbLine
  8
0
 62
256
370
-1
 48
1.0
  6
BYLAYER
 10
541.99474268413098
 20
71.930925481816246
 30
0.0
 11
538.28083590797985
 21
70.445362807925108
 31
0.0
  0
LINE
  5
D7
100
AcDbEntity
100
AcDbLine
  8
0
 62
256
370
-1
 48
1.0
  6
BYLAYER
 10
-20.000000000000028
 20
132.79065915539934
 30
0.0
 11
-20.000000000000028
 21
143.08131831079874
 31
0.0
  0
LINE
  5
D8
100
AcDbEntity
100
AcDbLine
  8
0
 62
256
370
-1
 48
1.0
  6
BYLAYER
 10
-200.00000000000003
 20
132.79065915539937
 30
0.0
 11
-200.00000000000003
 21
143.08131831079876
 31
0.0
  0
LINE
  5
D9
100
AcDbEntity
100
AcDbLine
  8
0
 62
256
370
-1
 48
1.0
  6
BYLAYER
 10
61.719164092020151
 20
70.445362807925122
 30
0.0
 11
65.54101887476952
 21
80.000000000000028
 31
0.0
  0
LINE
  5
DA
100
AcDbEntity
100
AcDbLine
  8
0
 62
256
370
-1
 48
1.0
  6
BYLAYER
 10
538.28083590797985
 20
70.445362807925108
 30
0.0
 11
534.45898112523048
 21
80.0
 31
0.0
  0
LINE
  5
DB
100
AcDbEntity
100
AcDbLine
  8
0
 62
256
370
-1
 48
1.0
  6
BYLAYER
 10
44.616263691415227
 20
90.0
 30
0.0
 11
60.958901059035753
 21
90.0
 31
0.0
  0
LINE
  5
DC
100
AcDbEntity
100
AcDbLine
  8
0
 62
256
370
-1
 48
1.0
  6
BYLAYER
 10
-499.99999999999994
 20
-40.0
 30
0.0
 11
-483.65736263237943
 21
-40.0
 31
0.0
  0
LINE
  5
DD
100
AcDbEntity
100
AcDbLine
  8
0
 62
256
370
-1
 48
1.0
  6
BYLAYER
 10
-500.0
 20
-232.00000000000006
 30
0.0
 11
-483.65736263237949
 21
-232.00000000000006
 31
0.0
  0
LINE
  5
DE
100
AcDbEntity
100
AcDbLine
  8
0
 62
256
370
-1
 48
1.0
  6
BYLAYER
 10
60.958901059035753
 20
90.0
 30
0.0
 11
60.958901059035753
 21
96.0
 31
0.0
  0
LINE
  5
DF
100
AcDbEntity
100
AcDbLine
  8
0
 62
256
370
-1
 48
1.0
  6
BYLAYER
 10
-483.65736263237943
 20
-40.0
 30
0.0
 11
-483.65736263237943
 21
-46.0
 31
0.0
  0
LINE
  5
E0
100
AcDbEntity
100
AcDbLine
  8
0
 62
256
370
-1
 48
1.0
  6
BYLAYER
 10
-483.65736263237949
 20
-232.00000000000006
 30
0.0
 11
-483.65736263237949
 21
-226.00000000000006
 31
0.0
  0
LINE
  5
E1
100
AcDbEntity
100
AcDbLine
  8
0
 62
256
370
-1
 48
1.0
  6
BYLAYER
 10
60.958901059035753
 20
96.0
 30
0.0
 11
75.958901059035753
 21
96.0
 31
0.0
  0
LINE
  5
E2
100
AcDbEntity
100
AcDbLine
  8
0
 62
256
370
-1
 48
1.0
  6
BYLAYER
 10
-483.65736263237943
 20
-46.0
 30
0.0
 11
-468.65736263237949
 21
-46.000000000000014
 31
0.0
  0
LINE
  5
E3
100
AcDbEntity
100
AcDbLine
  8
0
 62
256
370
-1
 48
1.0
  6
BYLAYER
 10
-483.65736263237949
 20
-226.00000000000006
 30
0.0
 11
-468.65736263237949
 21
-226.00000000000006
 31
0.0
  0
LINE
  5
E4
100
AcDbEntity
100
AcDbLine
  8
0
 62
256
370
-1
 48
1.0
  6
BYLAYER
 10
75.958901059035753
 20
96.0
 30
0.0
 11
75.958901059035753
 21
90.0
 31
0.0
  0
LINE
  5
E5
100
AcDbEntity
100
AcDbLine
  8
0
 62
256
370
-1
 48
1.0
  6
BYLAYER
 10
-468.65736263237949
 20
-46.000000000000014
 30
0.0
 11
-468.65736263237949
 21
-40.0
 31
0.0
  0
LINE
  5
E6
100
AcDbEntity
100
AcDbLine
  8
0
 62
256
370
-1
 48
1.0
  6
BYLAYER
 10
-468.65736263237949
 20
-226.00000000000006
 30
0.0
 11
-468.65736263237949
 21
-232.00000000000006
 31
0.0
  0
LINE
  5
E7
100
AcDbEntity
100
AcDbLine
  8
0
 62
256
370
-1
 48
1.0
  6
BYLAYER
 10
75.958901059035753
 20
90.0
 30
0.0
 11
89.901538426656288
 21
90.0
 31
0.0
  0
LINE
  5
E8
100
AcDbEntity
100
AcDbLine
  8
0
 62
256
370
-1
 48
1.0
  6
BYLAYER
 10
-468.65736263237949
 20
-40.0
 30
0.0
 11
-454.71472526475884
 21
-40.000000000000028
 31
0.0
  0
LINE
  5
E9
100
AcDbEntity
100
AcDbLine
  8
0
 62
256
370
-1
 48
1.0
  6
BYLAYER
 10
-468.65736263237949
 20
-232.00000000000006
 30
0.0
 11
-454.7147252647589
 21
-232.00000000000006
 31
0.0
  0
LINE
  5
EA
100
AcDbEntity
100
AcDbLine
  8
0
 62
256
370
-1
 48
1.0
  6
BYLAYER
 10
89.901538426656288
 20
90.0
 30
0.0
 11
89.901538426656288
 21
96.0
 31
0.0
  0
LINE
  5
EB
100
AcDbEntity
100
AcDbLine
  8
0
 62
256
370
-1
 48
1.0
  6
BYLAYER
 10
-454.71472526475884
 20
-40.000000000000028
 30
0.0
 11
-454.7147252647589
 21
-46.0
 31
0.0
  0
LINE
  5
EC
100
AcDbEntity
100
AcDbLine
  8
0
 62
256
370
-1
 48
1.0
  6
BYLAYER
 10
-454.7147252647589
 20
-232.00000000000006
 30
0.0
 11
-454.7147252647589
 21
-226.00000000000006
 31
0.0
  0
LINE
  5
ED
100
AcDbEntity
100
AcDbLine
  8
0
 62
256
370
-1
 48
1.0
  6
BYLAYER
 10
89.901538426656288
 20
96.0
 30
0.0
 11
104.90153842665629
 21
96.0
 31
0.0
  0
LINE
  5
EE
100
AcDbEntity
100
AcDbLine
  8
0
 62
256
370
-1
 48
1.0
  6
BYLAYER
 10
-454.7147252647589
 20
-46.0
 30
0.0
 11
-439.7147252647589
 21
-46.0
 31
0.0
  0
LINE
  5
EF
100
AcDbEntity
100
AcDbLine
  8
0
 62
256
370
-1
 48
1.0
  6
BYLAYER
 10
-454.7147252647589
 20
-226.00000000000006
 30
0.0
 11
-439.7147252647589
 21
-226.00000000000006
 31
0.0
  0
LINE
  5
F0
100
AcDbEntity
100
AcDbLine
  8
0
 62
256
370
-1
 48
1.0
  6
BYLAYER
 10
104.90153842665629
 20
96.0
 30
0.0
 11
104.90153842665629
 21
90.0
 31
0.0
  0
LINE
  5
F1
100
AcDbEntity
100
AcDbLine
  8
0
 62
256
370
-1
 48
1.0
  6
BYLAYER
 10
-439.7147252647589
 20
-46.0
 30
0.0
 11
-439.7147252647589
 21
-40.0
 31
0.0
  0
LINE
  5
F2
100
AcDbEntity
100
AcDbLine
  8
0
 62
256
370
-1
 48
1.0
  6
BYLAYER
 10
-439.7147252647589
 20
-226.00000000000006
 30
0.0
 11
-439.7147252647589
 21
-232.00000000000006
 31
0.0
  0
LINE
  5
F3
100
AcDbEntity
100
AcDbLine
  8
0
 62
256
370
-1
 48
1.0
  6
BYLAYER
 10
104.90153842665629
 20
90.0
 30
0.0
 11
118.84417579427682
 21
90.0
 31
0.0
  0
LINE
  5
F4
100
AcDbEntity
100
AcDbLine
  8
0
 62
256
370
-1
 48
1.0
  6
BYLAYER
 10
-439.7147252647589
 20
-40.0
 30
0.0
 11
-425.77208789713836
 21
-40.000000000000028
 31
0.0
  0
LINE
  5
F5
100
AcDbEntity
100
AcDbLine
  8
0
 62
256
370
-1
 48
1.0
  6
BYLAYER
 10
-439.7147252647589
 20
-232.00000000000006
 30
0.0
 11
-425.77208789713842
 21
-232.00000000000006
 31
0.0
  0
LINE
  5
F6
100
AcDbEntity
100
AcDbLine
  8
0
 62
256
370
-1
 48
1.0
  6
BYLAYER
 10
118.84417579427682
 20
90.0
 30
0.0
 11
118.84417579427682
 21
96.0
 31
0.0
  0
LINE
  5
F7
100
AcDbEntity
100
AcDbLine
  8
0
 62
256
370
-1
 48
1.0
  6
BYLAYER
 10
-425.77208789713836
 20
-40.000000000000028
 30
0.0
 11
-425.77208789713836
 21
-46.000000000000043
 31
0.0
  0
LINE
  5
F8
100
AcDbEntity
100
AcDbLine
  8
0
 62
256
370
-1
 48
1.0
  6
BYLAYER
 10
-425.77208789713842
 20
-232.00000000000006
 30
0.0
 11
-425.77208789713842
 21
-226.00000000000006
 31
0.0
  0
LINE
  5
F9
100
AcDbEntity
100
AcDbLine
  8
0
 62
256
370
-1
 48
1.0
  6
BYLAYER
 10
118.84417579427682
 20
96.0
 30
0.0
 11
133.84417579427682
 21
96.0
 31
0.0
  0
LINE
  5
FA
100
AcDbEntity
100
AcDbLine
  8
0
 62
256
370
-1
 48
1.0
  6
BYLAYER
 10
-425.77208789713836
 20
-46.000000000000043
 30
0.0
 11
-410.77208789713842
 21
-46.000000000000014
 31
0.0
  0
LINE
  5
FB
100
AcDbEntity
100
AcDbLine
  8
0
 62
256
370
-1
 48
1.0
  6
BYLAYER
 10
-425.77208789713842
 20
-226.00000000000006
 30
0.0
 11
-410.77208789713842
 21
-226.00000000000006
 31
0.0
  0
LINE
  5
FC
100
AcDbEntity
100
AcDbLine
  8
0
 62
256
370
-1
 48
1.0
  6
BYLAYER
 10
133.84417579427682
 20
96.0
 30
0.0
 11
133.84417579427682
 21
90.0
 31
0.0
  0
LINE
  5
FD
100
AcDbEntity
100
AcDbLine
  8
0
 62
256
370
-1
 48
1.0
  6
BYLAYER
 10
-410.77208789713842
 20
-46.000000000000014
 30
0.0
 11
-410.77208789713842
 21
-39.999999999999986
 31
0.0
  0
LINE
  5
FE
100
AcDbEntity
100
AcDbLine
  8
0
 62
256
370
-1
 48
1.0
  6
BYLAYER
 10
-410.77208789713842
 20
-226.00000000000006
 30
0.0
 11
-410.77208789713842
 21
-232.00000000000006
 31
0.0
  0
LINE
  5
FF
100
AcDbEntity
100
AcDbLine
  8
0
 62
256
370
-1
 48
1.0
  6
BYLAYER
 10
133.84417579427682
 20
90.0
 30
0.0
 11
147.78681316189736
 21
90.0
 31
0.0
  0
LINE
  5
100
100
AcDbEntity
100
AcDbLine
  8
0
 62
256
370
-1
 48
1.0
  6
BYLAYER
 10
-410.77208789713842
 20
-39.999999999999986
 30
0.0
 11
-396.82945052951783
 21
-39.999999999999986
 31
0.0
  0
LINE
  5
101
100
AcDbEntity
100
AcDbLine
  8
0
 62
256
370
-1
 48
1.0
  6
BYLAYER
 10
-410.77208789713842
 20
-232.00000000000006
 30
0.0
 11
-396.82945052951783
 21
-232.00000000000006
 31
0.0
  0
LINE
  5
102
100
AcDbEntity
100
AcDbLine
  8
0
 62
256
370
-1
 48
1.0
  6
BYLAYER
 10
147.78681316189736
 20
90.0
 30
0.0
 11
147.78681316189736
 21
96.0
 31
0.0
  0
LINE
  5
103
100
AcDbEntity
100
AcDbLine
  8
0
 62
256
370
-1
 48
1.0
  6
BYLAYER
 10
-396.82945052951783
 20
-39.999999999999986
 30
0.0
 11
-396.82945052951777
 21
-46.000000000000071
 31
0.0
  0
LINE
  5
104
100
AcDbEntity
100
AcDbLine
  8
0
 62
256
370
-1
 48
1.0
  6
BYLAYER
 10
-396.82945052951783
 20
-232.00000000000006
 30
0.0
 11
-396.82945052951783
 21
-226.00000000000006
 31
0.0
  0
LINE
  5
105
100
AcDbEntity
100
AcDbLine
  8
0
 62
256
370
-1
 48
1.0
  6
BYLAYER
 10
147.78681316189736
 20
96.0
 30
0.0
 11
162.78681316189736
 21
96.0
 31
0.0
  0
LINE
  5
106
100
AcDbEntity
100
AcDbLine
  8
0
 62
256
370
-1
 48
1.0
  6
BYLAYER
 10
-396.82945052951777
 20
-46.000000000000071
 30
0.0
 11
-381.82945052951783
 21
-46.000000000000014
 31
0.0
  0
LINE
  5
107
100
AcDbEntity
100
AcDbLine
  8
0
 62
256
370
-1
 48
1.0
  6
BYLAYER
 10
-396.82945052951783
 20
-226.00000000000006
 30
0.0
 11
-381.82945052951783
 21
-226.00000000000006
 31
0.0
  0
LINE
  5
108
100
AcDbEntity
100
AcDbLine
  8
0
 62
256
370
-1
 48
1.0
  6
BYLAYER
 10
162.78681316189736
 20
96.0
 30
0.0
 11
162.78681316189736
 21
90.0
 31
0.0
  0
LINE
  5
109
100
AcDbEntity
100
AcDbLine
  8
0
 62
256
370
-1
 48
1.0
  6
BYLAYER
 10
-381.82945052951783
 20
-46.000000000000014
 30
0.0
 11
-381.82945052951783
 21
-40.000000000000043
 31
0.0
  0
LINE
  5
10A
100
AcDbEntity
100
AcDbLine
  8
0
 62
256
370
-1
 48
1.0
  6
BYLAYER
 10
-381.82945052951783
 20
-226.00000000000006
 30
0.0
 11
-381.82945052951783
 21
-232.00000000000006
 31
0.0
  0
LINE
  5
10B
100
AcDbEntity
100
AcDbLine
  8
0
 62
256
370
-1
 48
1.0
  6
BYLAYER
 10
162.78681316189736
 20
90.0
 30
0.0
 11
176.72945052951789
 21
90.0
 31
0.0
  0
LINE
  5
10C
100
AcDbEntity
100
AcDbLine
  8
0
 62
256
370
-1
 48
1.0
  6
BYLAYER
 10
-381.82945052951783
 20
-40.000000000000043
 30
0.0
 11
-367.88681316189735
 21
-40.0
 31
0.0
  0
LINE
  5
10D
100
AcDbEntity
100
AcDbLine
  8
0
 62
256
370
-1
 48
1.0
  6
BYLAYER
 10
-381.82945052951783
 20
-232.00000000000006
 30
0.0
 11
-367.88681316189735
 21
-232.00000000000006
 31
0.0
  0
LINE
  5
10E
100
AcDbEntity
100
AcDbLine
  8
0
 62
256
370
-1
 48
1.0
  6
BYLAYER
 10
176.72945052951789
 20
90.0
 30
0.0
 11
176.72945052951789
 21
96.0
 31
0.0
  0
LINE
  5
10F
100
AcDbEntity
100
AcDbLine
  8
0
 62
256
370
-1
 48
1.0
  6
BYLAYER
 10
-367.88681316189735
 20
-40.0
 30
0.0
 11
-367.88681316189741
 21
-45.999999999999957
 31
0.0
  0
LINE
  5
110
100
AcDbEntity
100
AcDbLine
  8
0
 62
256
370
-1
 48
1.0
  6
BYLAYER
 10
-367.88681316189735
 20
-232.00000000000006
 30
0.0
 11
-367.88681316189735
 21
-226.00000000000006
 31
0.0
  0
LINE
  5
111
100
AcDbEntity
100
AcDbLine
  8
0
 62
256
370
-1
 48
1.0
  6
BYLAYER
 10
176.72945052951789
 20
96.0
 30
0.0
 11
191.72945052951789
 21
96.0
 31
0.0
  0
LINE
  5
112
100
AcDbEntity
100
AcDbLine
  8
0
 62
256
370
-1
 48
1.0
  6
BYLAYER
 10
-367.88681316189741
 20
-45.999999999999957
 30
0.0
 11
-352.88681316189735
 21
-46.0
 31
0.0
  0
LINE
  5
113
100
AcDbEntity
100
AcDbLine
  8
0
 62
256
370
-1
 48
1.0
  6
BYLAYER
 10
-367.88681316189735
 20
-226.00000000000006
 30
0.0
 11
-352.88681316189735
 21
-226.00000000000006
 31
0.0
  0
LINE
  5
114
100
AcDbEntity
100
AcDbLine
  8
0
 62
256
370
-1
 48
1.0
  6
BYLAYER
 10
191.72945052951789
 20
96.0
 30
0.0
 11
191.72945052951789
 21
90.0
 31
0.0
  0
LINE
  5
115
100
AcDbEntity
100
AcDbLine
  8
0
 62
256
370
-1
 48
1.0
  6
BYLAYER
 10
-352.88681316189735
 20
-46.0
 30
0.0
 11
-352.88681316189729
 21
-40.000000000000014
 31
0.0
  0
LINE
  5
116
100
AcDbEntity
100
AcDbLine
  8
0
 62
256
370
-1
 48
1.0
  6
BYLAYER
 10
-352.88681316189735
 20
-226.00000000000006
 30
0.0
 11
-352.88681316189735
 21
-232.00000000000006
 31
0.0
  0
LINE
  5
117
100
AcDbEntity
100
AcDbLine
  8
0
 62
256
370
-1
 48
1.0
  6
BYLAYER
 10
191.72945052951789
 20
90.0
 30
0.0
 11
205.67208789713843
 21
90.0
 31
0.0
  0
LINE
  5
118
100
AcDbEntity
100
AcDbLine
  8
0
 62
256
370
-1
 48
1.0
  6
BYLAYER
 10
-352.88681316189729
 20
-40.000000000000014
 30
0.0
 11
-338.94417579427676
 21
-40.0
 31
0.0
  0
LINE
  5
119
100
AcDbEntity
100
AcDbLine
  8
0
 62
256
370
-1
 48
1.0
  6
BYLAYER
 10
-352.88681316189735
 20
-232.00000000000006
 30
0.0
 11
-338.94417579427676
 21
-232.00000000000006
 31
0.0
  0
LINE
  5
11A
100
AcDbEntity
100
AcDbLine
  8
0
 62
256
370
-1
 48
1.0
  6
BYLAYER
 10
205.67208789713843
 20
90.0
 30
0.0
 11
205.67208789713843
 21
96.0
 31
0.0
  0
LINE
  5
11B
100
AcDbEntity
100
AcDbLine
  8
0
 62
256
370
-1
 48
1.0
  6
BYLAYER
 10
-338.94417579427676
 20
-40.0
 30
0.0
 11
-338.9441757942767
 21
-46.000000000000028
 31
0.0
  0
LINE
  5
11C
100
AcDbEntity
100
AcDbLine
  8
0
 62
256
370
-1
 48
1.0
  6
BYLAYER
 10
-338.94417579427676
 20
-232.00000000000006
 30
0.0
 11
-338.94417579427676
 21
-226.00000000000006
 31
0.0
  0
LINE
  5
11D
100
AcDbEntity
100
AcDbLine
  8
0
 62
256
370
-1
 48
1.0
  6
BYLAYER
 10
205.67208789713843
 20
96.0
 30
0.0
 11
220.67208789713843
 21
96.0
 31
0.0
  0
LINE
  5
11E
100
AcDbEntity
100
AcDbLine
  8
0
 62
256
370
-1
 48
1.0
  6
BYLAYER
 10
-338.9441757942767
 20
-46.000000000000028
 30
0.0
 11
-323.9441757942767
 21
-46.000000000000114
 31
0.0
  0
LINE
  5
11F
100
AcDbEntity
100
AcDbLine
  8
0
 62
256
370
-1
 48
1.0
  6
BYLAYER
 10
-338.94417579427676
 20
-226.00000000000006
 30
0.0
 11
-323.94417579427676
 21
-226.00000000000006
 31
0.0
  0
LINE
  5
120
100
AcDbEntity
100
AcDbLine
  8
0
 62
256
370
-1
 48
1.0
  6
BYLAYER
 10
220.67208789713843
 20
96.0
 30
0.0
 11
220.67208789713843
 21
90.0
 31
0.0
  0
LINE
  5
121
100
AcDbEntity
100
AcDbLine
  8
0
 62
256
370
-1
 48
1.0
  6
BYLAYER
 10
-323.9441757942767
 20
-46.000000000000114
 30
0.0
 11
-323.94417579427682
 21
-39.999999999999943
 31
0.0
  0
LINE
  5
122
100
AcDbEntity
100
AcDbLine
  8
0
 62
256
370
-1
 48
1.0
  6
BYLAYER
 10
-323.94417579427676
 20
-226.00000000000006
 30
0.0
 11
-323.94417579427676
 21
-232.00000000000006
 31
0.0
  0
LINE
  5
123
100
AcDbEntity
100
AcDbLine
  8
0
 62
256
370
-1
 48
1.0
  6
BYLAYER
 10
220.67208789713843
 20
90.0
 30
0.0
 11
234.61472526475896
 21
90.0
 31
0.0
  0
LINE
  5
124
100
AcDbEntity
100
AcDbLine
  8
0
 62
256
370
-1
 48
1.0
  6
BYLAYER
 10
-323.94417579427682
 20
-39.999999999999943
 30
0.0
 11
-310.00153842665628
 21
-39.999999999999986
 31
0.0
  0
LINE
  5
125
100
AcDbEntity
100
AcDbLine
  8
0
 62
256
370
-1
 48
1.0
  6
BYLAYER
 10
-323.94417579427676
 20
-232.00000000000006
 30
0.0
 11
-310.00153842665628
 21
-232.00000000000006
 31
0.0
  0
LINE
  5
126
100
AcDbEntity
100
AcDbLine
  8
0
 62
256
370
-1
 48
1.0
  6
BYLAYER
 10
234.61472526475896
 20
90.0
 30
0.0
 11
234.61472526475896
 21
96.0
 31
0.0
  0
LINE
  5
127
100
AcDbEntity
100
AcDbLine
  8
0
 62
256
370
-1
 48
1.0
  6
BYLAYER
 10
-310.00153842665628
 20
-39.999999999999986
 30
0.0
 11
-310.00153842665628
 21
-45.999999999999943
 31
0.0
  0
LINE
  5
128
100
AcDbEntity
100
AcDbLine
  8
0
 62
256
370
-1
 48
1.0
  6
BYLAYER
 10
-310.00153842665628
 20
-232.00000000000006
 30
0.0
 11
-310.00153842665628
 21
-226.00000000000006
 31
0.0
  0
LINE
  5
129
100
AcDbEntity
100
AcDbLine
  8
0
 62
256
370
-1
 48
1.0
  6
BYLAYER
 10
234.61472526475896
 20
96.0
 30
0.0
 11
249.61472526475896
 21
96.0
 31
0.0
  0
LINE
  5
12A
100
AcDbEntity
100
AcDbLine
  8
0
 62
256
370
-1
 48
1.0
  6
BYLAYER
 10
-310.00153842665628
 20
-45.999999999999943
 30
0.0
 11
-295.00153842665623
 21
-45.999999999999957
 31
0.0
  0
LINE
  5
12B
100
AcDbEntity
100
AcDbLine
  8
0
 62
256
370
-1
 48
1.0
  6
BYLAYER
 10
-310.00153842665628
 20
-226.00000000000006
 30
0.0
 11
-295.00153842665623
 21
-226.00000000000006
 31
0.0
  0
LINE
  5
12C
100
AcDbEntity
100
AcDbLine
  8
0
 62
256
370
-1
 48
1.0
  6
BYLAYER
 10
249.61472526475896
 20
96.0
 30
0.0
 11
249.61472526475896
 21
90.0
 31
0.0
  0
LINE
  5
12D
100
AcDbEntity
100
AcDbLine
  8
0
 62
256
370
-1
 48
1.0
  6
BYLAYER
 10
-295.00153842665623
 20
-45.999999999999957
 30
0.0
 11
-295.00153842665623
 21
-40.0
 31
0.0
  0
LINE
  5
12E
100
AcDbEntity
100
AcDbLine
  8
0
 62
256
370
-1
 48
1.0
  6
BYLAYER
 10
-295.00153842665623
 20
-226.00000000000006
 30
0.0
 11
-295.00153842665623
 21
-232.00000000000006
 31
0.0
  0
LINE
  5
12F
100
AcDbEntity
100
AcDbLine
  8
0
 62
256
370
-1
 48
1.0
  6
BYLAYER
 10
249.61472526475896
 20
90.0
 30
0.0
 11
263.55736263237947
 21
90.0
 31
0.0
  0
LINE
  5
130
100
AcDbEntity
100
AcDbLine
  8
0
 62
256
370
-1
 48
1.0
  6
BYLAYER
 10
-295.00153842665623
 20
-40.0
 30
0.0
 11
-281.05890105903569
 21
-40.000000000000114
 31
0.0
  0
LINE
  5
131
100
AcDbEntity
100
AcDbLine
  8
0
 62
256
370
-1
 48
1.0
  6
BYLAYER
 10
-295.00153842665623
 20
-232.00000000000006
 30
0.0
 11
-281.05890105903575
 21
-232.00000000000006
 31
0.0
  0
LINE
  5
132
100
AcDbEntity
100
AcDbLine
  8
0
 62
256
370
-1
 48
1.0
  6
BYLAYER
 10
263.55736263237947
 20
90.0
 30
0.0
 11
263.55736263237947
 21
96.0
 31
0.0
  0
LINE
  5
133
100
AcDbEntity
100
AcDbLine
  8
0
 62
256
370
-1
 48
1.0
  6
BYLAYER
 10
-281.05890105903569
 20
-40.000000000000114
 30
0.0
 11
-281.05890105903569
 21
-46.000000000000085
 31
0.0
  0
LINE
  5
134
100
AcDbEntity
100
AcDbLine
  8
0
 62
256
370
-1
 48
1.0
  6
BYLAYER
 10
-281.05890105903575
 20
-232.00000000000006
 30
0.0
 11
-281.05890105903575
 21
-226.00000000000006
 31
0.0
  0
LINE
  5
135
100
AcDbEntity
100
AcDbLine
  8
0
 62
256
370
-1
 48
1.0
  6
BYLAYER
 10
263.55736263237947
 20
96.0
 30
0.0
 11
278.55736263237947
 21
96.0
 31
0.0
  0
LINE
  5
136
100
AcDbEntity
100
AcDbLine
  8
0
 62
256
370
-1
 48
1.0
  6
BYLAYER
 10
-281.05890105903569
 20
-46.000000000000085
 30
0.0
 11
-266.05890105903575
 21
-45.999999999999986
 31
0.0
  0
LINE
  5
137
100
AcDbEntity
100
AcDbLine
  8
0
 62
256
370
-1
 48
1.0
  6
BYLAYER
 10
-281.05890105903575
 20
-226.00000000000006
 30
0.0
 11
-266.05890105903575
 21
-226.00000000000006
 31
0.0
  0
LINE
  5
138
100
AcDbEntity
100
AcDbLine
  8
0
 62
256
370
-1
 48
1.0
  6
BYLAYER
 10
278.55736263237947
 20
96.0
 30
0.0
 11
278.55736263237947
 21
90.0
 31
0.0
  0
LINE
  5
139
100
AcDbEntity
100
AcDbLine
  8
0
 62
256
370
-1
 48
1.0
  6
BYLAYER
 10
-266.05890105903575
 20
-45.999999999999986
 30
0.0
 11
-266.05890105903569
 21
-40.000000000000114
 31
0.0
  0
LINE
  5
13A
100
AcDbEntity
100
AcDbLine
  8
0
 62
256
370
-1
 48
1.0
  6
BYLAYER
 10
-266.05890105903575
 20
-226.00000000000006
 30
0.0
 11
-266.05890105903575
 21
-232.00000000000006
 31
0.0
  0
LINE
  5
13B
100
AcDbEntity
100
AcDbLine
  8
0
 62
256
370
-1
 48
1.0
  6
BYLAYER
 10
278.55736263237947
 20
90.0
 30
0.0
 11
292.5
 21
90.0
 31
0.0
  0
LINE
  5
13C
100
AcDbEntity
100
AcDbLine
  8
0
 62
256
370
-1
 48
1.0
  6
BYLAYER
 10
-266.05890105903569
 20
-40.000000000000114
 30
0.0
 11
-252.11626369141521
 21
-40.000000000000099
 31
0.0
  0
LINE
  5
13D
100
AcDbEntity
100
AcDbLine
  8
0
 62
256
370
-1
 48
1.0
  6
BYLAYER
 10
-266.05890105903575
 20
-232.00000000000006
 30
0.0
 11
-252.11626369141521
 21
-232.00000000000006
 31
0.0
  0
LINE
  5
13E
100
AcDbEntity
100
AcDbLine
  8
0
 62
256
370
-1
 48
1.0
  6
BYLAYER
 10
292.5
 20
90.0
 30
0.0
 11
292.5
 21
96.0
 31
0.0
  0
LINE
  5
13F
100
AcDbEntity
100
AcDbLine
  8
0
 62
256
370
-1
 48
1.0
  6
BYLAYER
 10
-252.11626369141521
 20
-40.000000000000099
 30
0.0
 11
-252.11626369141521
 21
-45.999999999999957
 31
0.0
  0
LINE
  5
140
100
AcDbEntity
100
AcDbLine
  8
0
 62
256
370
-1
 48
1.0
  6
BYLAYER
 10
-252.11626369141521
 20
-232.00000000000006
 30
0.0
 11
-252.11626369141521
 21
-226.00000000000006
 31
0.0
  0
LINE
  5
141
100
AcDbEntity
100
AcDbLine
  8
0
 62
256
370
-1
 48
1.0
  6
BYLAYER
 10
292.5
 20
96.0
 30
0.0
 11
307.5
 21
96.0
 31
0.0
  0
LINE
  5
142
100
AcDbEntity
100
AcDbLine
  8
0
 62
256
370
-1
 48
1.0
  6
BYLAYER
 10
-252.11626369141521
 20
-45.999999999999957
 30
0.0
 11
-237.11626369141521
 21
-45.999999999999957
 31
0.0
  0
LINE
  5
143
100
AcDbEntity
100
AcDbLine
  8
0
 62
256
370
-1
 48
1.0
  6
BYLAYER
 10
-252.11626369141521
 20
-226.00000000000006
 30
0.0
 11
-237.11626369141521
 21
-226.00000000000006
 31
0.0
  0
LINE
  5
144
100
AcDbEntity
100
AcDbLine
  8
0
 62
256
370
-1
 48
1.0
  6
BYLAYER
 10
307.5
 20
96.0
 30
0.0
 11
307.5
 21
90.0
 31
0.0
  0
LINE
  5
145
100
AcDbEntity
100
AcDbLine
  8
0
 62
256
370
-1
 48
1.0
  6
BYLAYER
 10
-237.11626369141521
 20
-45.999999999999957
 30
0.0
 11
-237.11626369141516
 21
-40.000000000000014
 31
0.0
  0
LINE
  5
146
100
AcDbEntity
100
AcDbLine
  8
0
 62
256
370
-1
 48
1.0
  6
BYLAYER
 10
-237.11626369141521
 20
-226.00000000000006
 30
0.0
 11
-237.11626369141521
 21
-232.00000000000006
 31
0.0
  0
LINE
  5
147
100
AcDbEntity
100
AcDbLine
  8
0
 62
256
370
-1
 48
1.0
  6
BYLAYER
 10
307.5
 20
90.0
 30
0.0
 11
321.44263736762053
 21
90.0
 31
0.0
  0
LINE
  5
148
100
AcDbEntity
100
AcDbLine
  8
0
 62
256
370
-1
 48
1.0
  6
BYLAYER
 10
-237.11626369141516
 20
-40.000000000000014
 30
0.0
 11
-223.17362632379468
 21
-39.999999999999943
 31
0.0
  0
LINE
  5
149
100
AcDbEntity
100
AcDbLine
  8
0
 62
256
370
-1
 48
1.0
  6
BYLAYER
 10
-237.11626369141521
 20
-232.00000000000006
 30
0.0
 11
-223.17362632379468
 21
-232.00000000000006
 31
0.0
  0
LINE
  5
14A
100
AcDbEntity
100
AcDbLine
  8
0
 62
256
370
-1
 48
1.0
  6
BYLAYER
 10
321.44263736762053
 20
90.0
 30
0.0
 11
321.44263736762053
 21
96.0
 31
0.0
  0
LINE
  5
14B
100
AcDbEntity
100
AcDbLine
  8
0
 62
256
370
-1
 48
1.0
  6
BYLAYER
 10
-223.17362632379468
 20
-39.999999999999943
 30
0.0
 11
-223.17362632379462
 21
-46.000000000000213
 31
0.0
  0
LINE
  5
14C
100
AcDbEntity
100
AcDbLine
  8
0
 62
256
370
-1
 48
1.0
  6
BYLAYER
 10
-223.17362632379468
 20
-232.00000000000006
 30
0.0
 11
-223.17362632379468
 21
-226.00000000000006
 31
0.0
  0
LINE
  5
14D
100
AcDbEntity
100
AcDbLine
  8
0
 62
256
370
-1
 48
1.0
  6
BYLAYER
 10
321.44263736762053
 20
96.0
 30
0.0
 11
336.44263736762053
 21
96.0
 31
0.0
  0
LINE
  5
14E
100
AcDbEntity
100
AcDbLine
  8
0
 62
256
370
-1
 48
1.0
  6
BYLAYER
 10
-223.17362632379462
 20
-46.000000000000213
 30
0.0
 11
-208.17362632379468
 21
-46.000000000000085
 31
0.0
  0
LINE
  5
14F
100
AcDbEntity
100
AcDbLine
  8
0
 62
256
370
-1
 48
1.0
  6
BYLAYER
 10
-223.17362632379468
 20
-226.00000000000006
 30
0.0
 11
-208.17362632379468
 21
-226.00000000000006
 31
0.0
  0
LINE
  5
150
100
AcDbEntity
100
AcDbLine
  8
0
 62
256
370
-1
 48
1.0
  6
BYLAYER
 10
336.44263736762053
 20
96.0
 30
0.0
 11
336.44263736762053
 21
90.0
 31
0.0
  0
LINE
  5
151
100
AcDbEntity
100
AcDbLine
  8
0
 62
256
370
-1
 48
1.0
  6
BYLAYER
 10
-208.17362632379468
 20
-46.000000000000085
 30
0.0
 11
-208.17362632379468
 21
-40.000000000000014
 31
0.0
  0
LINE
  5
152
100
AcDbEntity
100
AcDbLine
  8
0
 62
256
370
-1
 48
1.0
  6
BYLAYER
 10
-208.17362632379468
 20
-226.00000000000006
 30
0.0
 11
-208.17362632379468
 21
-232.00000000000006
 31
0.0
  0
LINE
  5
153
100
AcDbEntity
100
AcDbLine
  8
0
 62
256
370
-1
 48
1.0
  6
BYLAYER
 10
336.44263736762053
 20
90.0
 30
0.0
 11
350.38527473524107
 21
90.0
 31
0.0
  0
LINE
  5
154
100
AcDbEntity
100
AcDbLine
  8
0
 62
256
370
-1
 48
1.0
  6
BYLAYER
 10
-208.17362632379468
 20
-40.000000000000014
 30
0.0
 11
-194.23098895617409
 21
-40.000000000000213
 31
0.0
  0
LINE
  5
155
100
AcDbEntity
100
AcDbLine
  8
0
 62
256
370
-1
 48
1.0
  6
BYLAYER
 10
-208.17362632379468
 20
-232.00000000000006
 30
0.0
 11
-194.23098895617414
 21
-232.00000000000006
 31
0.0
  0
LINE
  5
156
100
AcDbEntity
100
AcDbLine
  8
0
 62
256
370
-1
 48
1.0
  6
BYLAYER
 10
350.38527473524107
 20
90.0
 30
0.0
 11
350.38527473524107
 21
96.0
 31
0.0
  0
LINE
  5
157
100
AcDbEntity
100
AcDbLine
  8
0
 62
256
370
-1
 48
1.0
  6
BYLAYER
 10
-194.23098895617409
 20
-40.000000000000213
 30
0.0
 11
-194.23098895617409
 21
-46.000000000000114
 31
0.0
  0
LINE
  5
158
100
AcDbEntity
100
AcDbLine
  8
0
 62
256
370
-1
 48
1.0
  6
BYLAYER
 10
-194.23098895617414
 20
-232.00000000000006
 30
0.0
 11
-194.23098895617414
 21
-226.00000000000006
 31
0.0
  0
LINE
  5
159
100
AcDbEntity
100
AcDbLine
  8
0
 62
256
370
-1
 48
1.0
  6
BYLAYER
 10
350.38527473524107
 20
96.0
 30
0.0
 11
365.38527473524107
 21
96.0
 31
0.0
  0
LINE
  5
15A
100
AcDbEntity
100
AcDbLine
  8
0
 62
256
370
-1
 48
1.0
  6
BYLAYER
 10
-194.23098895617409
 20
-46.000000000000114
 30
0.0
 11
-179.23098895617414
 21
-46.000000000000071
 31
0.0
  0
LINE
  5
15B
100
AcDbEntity
100
AcDbLine
  8
0
 62
256
370
-1
 48
1.0
  6
BYLAYER
 10
-194.23098895617414
 20
-226.00000000000006
 30
0.0
 11
-179.23098895617414
 21
-226.00000000000006
 31
0.0
  0
LINE
  5
15C
100
AcDbEntity
100
AcDbLine
  8
0
 62
256
370
-1
 48
1.0
  6
BYLAYER
 10
365.38527473524107
 20
96.0
 30
0.0
 11
365.38527473524107
 21
90.0
 31
0.0
  0
LINE
  5
15D
100
AcDbEntity
100
AcDbLine
  8
0
 62
256
370
-1
 48
1.0
  6
BYLAYER
 10
-179.23098895617414
 20
-46.000000000000071
 30
0.0
 11
-179.23098895617409
 21
-40.000000000000227
 31
0.0
  0
LINE
  5
15E
100
AcDbEntity
100
AcDbLine
  8
0
 62
256
370
-1
 48
1.0
  6
BYLAYER
 10
-179.23098895617414
 20
-226.00000000000006
 30
0.0
 11
-179.23098895617414
 21
-232.00000000000006
 31
0.0
  0
LINE
  5
15F
100
AcDbEntity
100
AcDbLine
  8
0
 62
256
370
-1
 48
1.0
  6
BYLAYER
 10
365.38527473524107
 20
90.0
 30
0.0
 11
379.3279121028616
 21
90.0
 31
0.0
  0
LINE
  5
160
100
AcDbEntity
100
AcDbLine
  8
0
 62
256
370
-1
 48
1.0
  6
BYLAYER
 10
-179.23098895617409
 20
-40.000000000000227
 30
0.0
 11
-165.28835158855355
 21
-40.000000000000313
 31
0.0
  0
LINE
  5
161
100
AcDbEntity
100
AcDbLine
  8
0
 62
256
370
-1
 48
1.0
  6
BYLAYER
 10
-179.23098895617414
 20
-232.00000000000006
 30
0.0
 11
-165.28835158855361
 21
-232.00000000000006
 31
0.0
  0
LINE
  5
162
100
AcDbEntity
100
AcDbLine
  8
0
 62
256
370
-1
 48
1.0
  6
BYLAYER
 10
379.3279121028616
 20
90.0
 30
0.0
 11
379.3279121028616
 21
96.0
 31
0.0
  0
LINE
  5
163
100
AcDbEntity
100
AcDbLine
  8
0
 62
256
370
-1
 48
1.0
  6
BYLAYER
 10
-165.28835158855355
 20
-40.000000000000313
 30
0.0
 11
-165.28835158855361
 21
-46.000000000000114
 31
0.0
  0
LINE
  5
164
100
AcDbEntity
100
AcDbLine
  8
0
 62
256
370
-1
 48
1.0
  6
BYLAYER
 10
-165.28835158855361
 20
-232.00000000000006
 30
0.0
 11
-165.28835158855361
 21
-226.00000000000006
 31
0.0
  0
LINE
  5
165
100
AcDbEntity
100
AcDbLine
  8
0
 62
256
370
-1
 48
1.0
  6
BYLAYER
 10
379.3279121028616
 20
96.0
 30
0.0
 11
394.3279121028616
 21
96.0
 31
0.0
  0
LINE
  5
166
100
AcDbEntity
100
AcDbLine
  8
0
 62
256
370
-1
 48
1.0
  6
BYLAYER
 10
-165.28835158855361
 20
-46.000000000000114
 30
0.0
 11
-150.28835158855361
 21
-45.999999999999929
 31
0.0
  0
LINE
  5
167
100
AcDbEntity
100
AcDbLine
  8
0
 62
256
370
-1
 48
1.0
  6
BYLAYER
 10
-165.28835158855361
 20
-226.00000000000006
 30
0.0
 11
-150.28835158855361
 21
-226.00000000000006
 31
0.0
  0
LINE
  5
168
100
AcDbEntity
100
AcDbLine
  8
0
 62
256
370
-1
 48
1.0
  6
BYLAYER
 10
394.3279121028616
 20
96.0
 30
0.0
 11
394.3279121028616
 21
90.0
 31
0.0
  0
LINE
  5
169
100
AcDbEntity
100
AcDbLine
  8
0
 62
256
370
-1
 48
1.0
  6
BYLAYER
 10
-150.28835158855361
 20
-45.999999999999929
 30
0.0
 11
-150.28835158855355
 21
-40.000000000000085
 31
0.0
  0
LINE
  5
16A
100
AcDbEntity
100
AcDbLine
  8
0
 62
256
370
-1
 48
1.0
  6
BYLAYER
 10
-150.28835158855361
 20
-226.00000000000006
 30
0.0
 11
-150.28835158855361
 21
-232.00000000000006
 31
0.0
  0
LINE
  5
16B
100
AcDbEntity
100
AcDbLine
  8
0
 62
256
370
-1
 48
1.0
  6
BYLAYER
 10
394.3279121028616
 20
90.0
 30
0.0
 11
408.27054947048214
 21
90.0
 31
0.0
  0
LINE
  5
16C
100
AcDbEntity
100
AcDbLine
  8
0
 62
256
370
-1
 48
1.0
  6
BYLAYER
 10
-150.28835158855355
 20
-40.000000000000085
 30
0.0
 11
-136.34571422093308
 21
-39.999999999999929
 31
0.0
  0
LINE
  5
16D
100
AcDbEntity
100
AcDbLine
  8
0
 62
256
370
-1
 48
1.0
  6
BYLAYER
 10
-150.28835158855361
 20
-232.00000000000006
 30
0.0
 11
-136.34571422093308
 21
-232.00000000000006
 31
0.0
  0
LINE
  5
16E
100
AcDbEntity
100
AcDbLine
  8
0
 62
256
370
-1
 48
1.0
  6
BYLAYER
 10
408.27054947048214
 20
90.0
 30
0.0
 11
408.27054947048214
 21
96.0
 31
0.0
  0
LINE
  5
16F
100
AcDbEntity
100
AcDbLine
  8
0
 62
256
370
-1
 48
1.0
  6
BYLAYER
 10
-136.34571422093308
 20
-39.999999999999929
 30
0.0
 11
-136.34571422093308
 21
-45.999999999999957
 31
0.0
  0
LINE
  5
170
100
AcDbEntity
100
AcDbLine
  8
0
 62
256
370
-1
 48
1.0
  6
BYLAYER
 10
-136.34571422093308
 20
-232.00000000000006
 30
0.0
 11
-136.34571422093308
 21
-226.00000000000006
 31
0.0
  0
LINE
  5
171
100
AcDbEntity
100
AcDbLine
  8
0
 62
256
370
-1
 48
1.0
  6
BYLAYER
 10
408.27054947048214
 20
96.0
 30
0.0
 11
423.27054947048214
 21
96.0
 31
0.0
  0
LINE
  5
172
100
AcDbEntity
100
AcDbLine
  8
0
 62
256
370
-1
 48
1.0
  6
BYLAYER
 10
-136.34571422093308
 20
-45.999999999999957
 30
0.0
 11
-121.34571422093302
 21
-46.000000000000341
 31
0.0
  0
LINE
  5
173
100
AcDbEntity
100
AcDbLine
  8
0
 62
256
370
-1
 48
1.0
  6
BYLAYER
 10
-136.34571422093308
 20
-226.00000000000006
 30
0.0
 11
-121.34571422093308
 21
-226.00000000000006
 31
0.0
  0
LINE
  5
174
100
AcDbEntity
100
AcDbLine
  8
0
 62
256
370
-1
 48
1.0
  6
BYLAYER
 10
423.27054947048214
 20
96.0
 30
0.0
 11
423.27054947048214
 21
90.0
 31
0.0
  0
LINE
  5
175
100
AcDbEntity
100
AcDbLine
  8
0
 62
256
370
-1
 48
1.0
  6
BYLAYER
 10
-121.34571422093302
 20
-46.000000000000341
 30
0.0
 11
-121.34571422093308
 21
-39.999999999999972
 31
0.0
  0
LINE
  5
176
100
AcDbEntity
100
AcDbLine
  8
0
 62
256
370
-1
 48
1.0
  6
BYLAYER
 10
-121.34571422093308
 20
-226.00000000000006
 30
0.0
 11
-121.34571422093308
 21
-232.00000000000006
 31
0.0
  0
LINE
  5
177
100
AcDbEntity
100
AcDbLine
  8
0
 62
256
370
-1
 48
1.0
  6
BYLAYER
 10
423.27054947048214
 20
90.0
 30
0.0
 11
437.21318683810267
 21
90.0
 31
0.0
  0
LINE
  5
178
100
AcDbEntity
100
AcDbLine
  8
0
 62
256
370
-1
 48
1.0
  6
BYLAYER
 10
-121.34571422093308
 20
-39.999999999999972
 30
0.0
 11
-107.40307685331254
 21
-40.000000000000071
 31
0.0
  0
LINE
  5
179
100
AcDbEntity
100
AcDbLine
  8
0
 62
256
370
-1
 48
1.0
  6
BYLAYER
 10
-121.34571422093308
 20
-232.00000000000006
 30
0.0
 11
-107.40307685331254
 21
-232.00000000000006
 31
0.0
  0
LINE
  5
17A
100
AcDbEntity
100
AcDbLine
  8
0
 62
256
370
-1
 48
1.0
  6
BYLAYER
 10
437.21318683810267
 20
90.0
 30
0.0
 11
437.21318683810267
 21
96.0
 31
0.0
  0
LINE
  5
17B
100
AcDbEntity
100
AcDbLine
  8
0
 62
256
370
-1
 48
1.0
  6
BYLAYER
 10
-107.40307685331254
 20
-40.000000000000071
 30
0.0
 11
-107.40307685331248
 21
-46.000000000000071
 31
0.0
  0
LINE
  5
17C
100
AcDbEntity
100
AcDbLine
  8
0
 62
256
370
-1
 48
1.0
  6
BYLAYER
 10
-107.40307685331254
 20
-232.00000000000006
 30
0.0
 11
-107.40307685331254
 21
-226.00000000000006
 31
0.0
  0
LINE
  5
17D
100
AcDbEntity
100
AcDbLine
  8
0
 62
256
370
-1
 48
1.0
  6
BYLAYER
 10
437.21318683810267
 20
96.0
 30
0.0
 11
452.21318683810267
 21
96.0
 31
0.0
  0
LINE
  5
17E
100
AcDbEntity
100
AcDbLine
  8
0
 62
256
370
-1
 48
1.0
  6
BYLAYER
 10
-107.40307685331248
 20
-46.000000000000071
 30
0.0
 11
-92.403076853312541
 21
-46.000000000000128
 31
0.0
  0
LINE
  5
17F
100
AcDbEntity
100
AcDbLine
  8
0
 62
256
370
-1
 48
1.0
  6
BYLAYER
 10
-107.40307685331254
 20
-226.00000000000006
 30
0.0
 11
-92.403076853312541
 21
-226.00000000000006
 31
0.0
  0
LINE
  5
180
100
AcDbEntity
100
AcDbLine
  8
0
 62
256
370
-1
 48
1.0
  6
BYLAYER
 10
452.21318683810267
 20
96.0
 30
0.0
 11
452.21318683810267
 21
90.0
 31
0.0
  0
LINE
  5
181
100
AcDbEntity
100
AcDbLine
  8
0
 62
256
370
-1
 48
1.0
  6
BYLAYER
 10
-92.403076853312541
 20
-46.000000000000128
 30
0.0
 11
-92.403076853312541
 21
-40.000000000000071
 31
0.0
  0
LINE
  5
182
100
AcDbEntity
100
AcDbLine
  8
0
 62
256
370
-1
 48
1.0
  6
BYLAYER
 10
-92.403076853312541
 20
-226.00000000000006
 30
0.0
 11
-92.403076853312541
 21
-232.00000000000006
 31
0.0
  0
LINE
  5
183
100
AcDbEntity
100
AcDbLine
  8
0
 62
256
370
-1
 48
1.0
  6
BYLAYER
 10
452.21318683810267
 20
90.0
 30
0.0
 11
466.15582420572321
 21
90.0
 31
0.0
  0
LINE
  5
184
100
AcDbEntity
100
AcDbLine
  8
0
 62
256
370
-1
 48
1.0
  6
BYLAYER
 10
-92.403076853312541
 20
-40.000000000000071
 30
0.0
 11
-78.46043948569195
 21
-40.000000000000313
 31
0.0
  0
LINE
  5
185
100
AcDbEntity
100
AcDbLine
  8
0
 62
256
370
-1
 48
1.0
  6
BYLAYER
 10
-92.403076853312541
 20
-232.00000000000006
 30
0.0
 11
-78.460439485692007
 21
-232.00000000000006
 31
0.0
  0
LINE
  5
186
100
AcDbEntity
100
AcDbLine
  8
0
 62
256
370
-1
 48
1.0
  6
BYLAYER
 10
466.15582420572321
 20
90.0
 30
0.0
 11
466.15582420572321
 21
96.0
 31
0.0
  0
LINE
  5
187
100
AcDbEntity
100
AcDbLine
  8
0
 62
256
370
-1
 48
1.0
  6
BYLAYER
 10
-78.46043948569195
 20
-40.000000000000313
 30
0.0
 11
-78.460439485692007
 21
-46.000000000000043
 31
0.0
  0
LINE
  5
188
100
AcDbEntity
100
AcDbLine
  8
0
 62
256
370
-1
 48
1.0
  6
BYLAYER
 10
-78.460439485692007
 20
-232.00000000000006
 30
0.0
 11
-78.460439485692007
 21
-226.00000000000006
 31
0.0
  0
LINE
  5
189
100
AcDbEntity
100
AcDbLine
  8
0
 62
256
370
-1
 48
1.0
  6
BYLAYER
 10
466.15582420572321
 20
96.0
 30
0.0
 11
481.15582420572321
 21
96.0
 31
0.0
  0
LINE
  5
18A
100
AcDbEntity
100
AcDbLine
  8
0
 62
256
370
-1
 48
1.0
  6
BYLAYER
 10
-78.460439485692007
 20
-46.000000000000043
 30
0.0
 11
-63.460439485692007
 21
-45.999999999999901
 31
0.0
  0
LINE
  5
18B
100
AcDbEntity
100
AcDbLine
  8
0
 62
256
370
-1
 48
1.0
  6
BYLAYER
 10
-78.460439485692007
 20
-226.00000000000006
 30
0.0
 11
-63.460439485692007
 21
-226.00000000000006
 31
0.0
  0
LINE
  5
18C
100
AcDbEntity
100
AcDbLine
  8
0
 62
256
370
-1
 48
1.0
  6
BYLAYER
 10
481.15582420572321
 20
96.0
 30
0.0
 11
481.15582420572321
 21
90.0
 31
0.0
  0
LINE
  5
18D
100
AcDbEntity
100
AcDbLine
  8
0
 62
256
370
-1
 48
1.0
  6
BYLAYER
 10
-63.460439485692007
 20
-45.999999999999901
 30
0.0
 11
-63.46043948569195
 21
-40.000000000000071
 31
0.0
  0
LINE
  5
18E
100
AcDbEntity
100
AcDbLine
  8
0
 62
256
370
-1
 48
1.0
  6
BYLAYER
 10
-63.460439485692007
 20
-226.00000000000006
 30
0.0
 11
-63.460439485692007
 21
-232.00000000000006
 31
0.0
  0
LINE
  5
18F
100
AcDbEntity
100
AcDbLine
  8
0
 62
256
370
-1
 48
1.0
  6
BYLAYER
 10
481.15582420572321
 20
90.0
 30
0.0
 11
495.09846157334374
 21
90.0
 31
0.0
  0
LINE
  5
190
100
AcDbEntity
100
AcDbLine
  8
0
 62
256
370
-1
 48
1.0
  6
BYLAYER
 10
-63.46043948569195
 20
-40.000000000000071
 30
0.0
 11
-49.517802118071472
 21
-40.000000000000298
 31
0.0
  0
LINE
  5
191
100
AcDbEntity
100
AcDbLine
  8
0
 62
256
370
-1
 48
1.0
  6
BYLAYER
 10
-63.460439485692007
 20
-232.00000000000006
 30
0.0
 11
-49.517802118071472
 21
-232.00000000000006
 31
0.0
  0
LINE
  5
192
100
AcDbEntity
100
AcDbLine
  8
0
 62
256
370
-1
 48
1.0
  6
BYLAYER
 10
495.09846157334374
 20
90.0
 30
0.0
 11
495.09846157334374
 21
96.0
 31
0.0
  0
LINE
  5
193
100
AcDbEntity
100
AcDbLine
  8
0
 62
256
370
-1
 48
1.0
  6
BYLAYER
 10
-49.517802118071472
 20
-40.000000000000298
 30
0.0
 11
-49.517802118071415
 21
-46.000000000000128
 31
0.0
  0
LINE
  5
194
100
AcDbEntity
100
AcDbLine
  8
0
 62
256
370
-1
 48
1.0
  6
BYLAYER
 10
-49.517802118071472
 20
-232.00000000000006
 30
0.0
 11
-49.517802118071472
 21
-226.00000000000006
 31
0.0
  0
LINE
  5
195
100
AcDbEntity
100
AcDbLine
  8
0
 62
256
370
-1
 48
1.0
  6
BYLAYER
 10
495.09846157334374
 20
96.0
 30
0.0
 11
510.09846157334374
 21
96.0
 31
0.0
  0
LINE
  5
196
100
AcDbEntity
100
AcDbLine
  8
0
 62
256
370
-1
 48
1.0
  6
BYLAYER
 10
-49.517802118071415
 20
-46.000000000000128
 30
0.0
 11
-34.517802118071472
 21
-46.000000000000057
 31
0.0
  0
LINE
  5
197
100
AcDbEntity
100
AcDbLine
  8
0
 62
256
370
-1
 48
1.0
  6
BYLAYER
 10
-49.517802118071472
 20
-226.00000000000006
 30
0.0
 11
-34.517802118071472
 21
-226.00000000000006
 31
0.0
  0
LINE
  5
198
100
AcDbEntity
100
AcDbLine
  8
0
 62
256
370
-1
 48
1.0
  6
BYLAYER
 10
510.09846157334374
 20
96.0
 30
0.0
 11
510.09846157334374
 21
90.0
 31
0.0
  0
LINE
  5
199
100
AcDbEntity
100
AcDbLine
  8
0
 62
256
370
-1
 48
1.0
  6
BYLAYER
 10
-34.517802118071472
 20
-46.000000000000057
 30
0.0
 11
-34.517802118071472
 21
-40.000000000000128
 31
0.0
  0
LINE
  5
19A
100
AcDbEntity
100
AcDbLine
  8
0
 62
256
370
-1
 48
1.0
  6
BYLAYER
 10
-34.517802118071472
 20
-226.00000000000006
 30
0.0
 11
-34.517802118071472
 21
-232.00000000000006
 31
0.0
  0
LINE
  5
19B
100
AcDbEntity
100
AcDbLine
  8
0
 62
256
370
-1
 48
1.0
  6
BYLAYER
 10
510.09846157334374
 20
90.0
 30
0.0
 11
524.04109894096428
 21
90.0
 31
0.0
  0
LINE
  5
19C
100
AcDbEntity
100
AcDbLine
  8
0
 62
256
370
-1
 48
1.0
  6
BYLAYER
 10
-34.517802118071472
 20
-40.000000000000128
 30
0.0
 11
-20.575164750450881
 21
-40.000000000000313
 31
0.0
  0
LINE
  5
19D
100
AcDbEntity
100
AcDbLine
  8
0
 62
256
370
-1
 48
1.0
  6
BYLAYER
 10
-34.517802118071472
 20
-232.00000000000006
 30
0.0
 11
-20.575164750450938
 21
-232.00000000000006
 31
0.0
  0
LINE
  5
19E
100
AcDbEntity
100
AcDbLine
  8
0
 62
256
370
-1
 48
1.0
  6
BYLAYER
 10
524.04109894096428
 20
90.0
 30
0.0
 11
524.04109894096428
 21
96.0
 31
0.0
  0
LINE
  5
19F
100
AcDbEntity
100
AcDbLine
  8
0
 62
256
370
-1
 48
1.0
  6
BYLAYER
 10
-20.575164750450881
 20
-40.000000000000313
 30
0.0
 11
-20.575164750450938
 21
-46.000000000000171
 31
0.0
  0
LINE
  5
1A0
100
AcDbEntity
100
AcDbLine
  8
0
 62
256
370
-1
 48
1.0
  6
BYLAYER
 10
-20.575164750450938
 20
-232.00000000000006
 30
0.0
 11
-20.575164750450938
 21
-226.00000000000006
 31
0.0
  0
LINE
  5
1A1
100
AcDbEntity
100
AcDbLine
  8
0
 62
256
370
-1
 48
1.0
  6
BYLAYER
 10
524.04109894096428
 20
96.0
 30
0.0
 11
539.04109894096428
 21
96.0
 31
0.0
  0
LINE
  5
1A2
100
AcDbEntity
100
AcDbLine
  8
0
 62
256
370
-1
 48
1.0
  6
BYLAYER
 10
-20.575164750450938
 20
-46.000000000000171
 30
0.0
 11
-5.5751647504509378
 21
-46.000000000000085
 31
0.0
  0
LINE
  5
1A3
100
AcDbEntity
100
AcDbLine
  8
0
 62
256
370
-1
 48
1.0
  6
BYLAYER
 10
-20.575164750450938
 20
-226.00000000000006
 30
0.0
 11
-5.5751647504509378
 21
-226.00000000000006
 31
0.0
  0
LINE
  5
1A4
100
AcDbEntity
100
AcDbLine
  8
0
 62
256
370
-1
 48
1.0
  6
BYLAYER
 10
539.04109894096428
 20
96.0
 30
0.0
 11
539.04109894096428
 21
90.0
 31
0.0
  0
LINE
  5
1A5
100
AcDbEntity
100
AcDbLine
  8
0
 62
256
370
-1
 48
1.0
  6
BYLAYER
 10
-5.5751647504509378
 20
-46.000000000000085
 30
0.0
 11
-5.575164750450881
 21
-40.000000000000071
 31
0.0
  0
LINE
  5
1A6
100
AcDbEntity
100
AcDbLine
  8
0
 62
256
370
-1
 48
1.0
  6
BYLAYER
 10
-5.5751647504509378
 20
-226.00000000000006
 30
0.0
 11
-5.5751647504509378
 21
-232.00000000000006
 31
0.0
  0
LINE
  5
1A7
100
AcDbEntity
100
AcDbLine
  8
0
 62
256
370
-1
 48
1.0
  6
BYLAYER
 10
539.04109894096428
 20
90.0
 30
0.0
 11
555.3837363085845
 21
90.0
 31
0.0
  0
LINE
  5
1A8
100
AcDbEntity
100
AcDbLine
  8
0
 62
256
370
-1
 48
1.0
  6
BYLAYER
 10
-5.575164750450881
 20
-40.000000000000071
 30
0.0
 11
10.767472617169346
 21
-39.999999999999744
 31
0.0
  0
LINE
  5
1A9
100
AcDbEntity
100
AcDbLine
  8
0
 62
256
370
-1
 48
1.0
  6
BYLAYER
 10
-5.5751647504509378
 20
-232.00000000000006
 30
0.0
 11
10.76747261716929
 21
-232.00000000000006
 31
0.0
  0
LINE
  5
1AA
100
AcDbEntity
100
AcDbLine
  8
0
 62
256
370
-1
 48
1.0
  6
BYLAYER
 10
8.6162636914152699
 20
-0.0000000000000568
 30
0.0
 11
16.078641676956067
 21
-0.0000000000000568
 31
0.0
  0
LINE
  5
1AB
100
AcDbEntity
100
AcDbLine
  8
0
 62
256
370
-1
 48
1.0
  6
BYLAYER
 10
591.38373630858473
 20
-0.0
 30
0.0
 11
583.92135832304393
 21
0.0000000000000009
 31
0.0
  0
LINE
  5
1AC
100
AcDbEntity
100
AcDbLine
  8
0
 62
256
370
-1
 48
1.0
  6
BYLAYER
 10
16.078641676956067
 20
-0.0000000000000568
 30
0.0
 11
16.078641676956067
 21
3.9999999999999289
 31
0.0
  0
LINE
  5
1AD
100
AcDbEntity
100
AcDbLine
  8
0
 62
256
370
-1
 48
1.0
  6
BYLAYER
 10
583.92135832304393
 20
0.0000000000000009
 30
0.0
 11
583.92135832304393
 21
4.0000000000000009
 31
0.0
  0
LINE
  5
1AE
100
AcDbEntity
100
AcDbLine
  8
0
 62
256
370
-1
 48
1.0
  6
BYLAYER
 10
16.078641676956067
 20
3.9999999999999289
 30
0.0
 11
26.078641676956067
 21
3.9999999999999005
 31
0.0
  0
LINE
  5
1AF
100
AcDbEntity
100
AcDbLine
  8
0
 62
256
370
-1
 48
1.0
  6
BYLAYER
 10
583.92135832304393
 20
4.0000000000000009
 30
0.0
 11
573.92135832304393
 21
4.0000000000000018
 31
0.0
  0
LINE
  5
1B0
100
AcDbEntity
100
AcDbLine
  8
0
 62
256
370
-1
 48
1.0
  6
BYLAYER
 10
26.078641676956067
 20
3.9999999999999005
 30
0.0
 11
26.078641676956067
 21
0.0
 31
0.0
  0
LINE
  5
1B1
100
AcDbEntity
100
AcDbLine
  8
0
 62
256
370
-1
 48
1.0
  6
BYLAYER
 10
573.92135832304393
 20
4.0000000000000018
 30
0.0
 11
573.92135832304393
 21
0.0000000000000018
 31
0.0
  0
LINE
  5
1B2
100
AcDbEntity
100
AcDbLine
  8
0
 62
256
370
-1
 48
1.0
  6
BYLAYER
 10
26.078641676956067
 20
0.0
 30
0.0
 11
33.541019662496808
 21
0.0000000000000142
 31
0.0
  0
LINE
  5
1B3
100
AcDbEntity
100
AcDbLine
  8
0
 62
256
370
-1
 48
1.0
  6
BYLAYER
 10
573.92135832304393
 20
0.0000000000000018
 30
0.0
 11
566.45898033750314
 21
0.0000000000000027
 31
0.0
  0
LINE
  5
1B4
100
AcDbEntity
100
AcDbLine
  8
0
 62
256
370
-1
 48
1.0
  6
BYLAYER
 10
700.0
 20
0.0
 30
0.0
 11
1300.0
 21
0.0
 31
0.0
  0
LINE
  5
1B5
100
AcDbEntity
100
AcDbLine
  8
0
 62
256
370
-1
 48
1.0
  6
BYLAYER
 10
1300.0
 20
0.0
 30
0.0
 11
1300.0
 21
200.0
 31
0.0
  0
LINE
  5
1B6
100
AcDbEntity
100
AcDbLine
  8
0
 62
256
370
-1
 48
1.0
  6
BYLAYER
 10
1300.0
 20
200.0
 30
0.0
 11
700.0
 21
200.0
 31
0.0
  0
LINE
  5
1B7
100
AcDbEntity
100
AcDbLine
  8
0
 62
256
370
-1
 48
1.0
  6
BYLAYER
 10
700.0
 20
200.0
 30
0.0
 11
700.0
 21
0.0
 31
0.0
  0
LINE
  5
1B8
100
AcDbEntity
100
AcDbLine
  8
0
 62
256
370
-1
 48
1.0
  6
BYLAYER
 10
1300.0
 20
196.0
 30
0.0
 11
700.0
 21
196.0
 31
0.0
  0
LINE
  5
1B9
100
AcDbEntity
100
AcDbLine
  8
0
 62
256
370
-1
 48
1.0
  6
BYLAYER
 10
700.0
 20
4.0
 30
0.0
 11
1300.0
 21
4.0
 31
0.0
  0
LINE
  5
1BA
100
AcDbEntity
100
AcDbLine
  8
0
 62
256
370
-1
 48
1.0
  6
BYLAYER
 10
1300.0
 20
190.0
 30
0.0
 11
700.0
 21
190.0
 31
0.0
  0
LINE
  5
1BB
100
AcDbEntity
100
AcDbLine
  8
0
 62
256
370
-1
 48
1.0
  6
BYLAYER
 10
700.0
 20
10.0
 30
0.0
 11
1300.0
 21
10.0
 31
0.0
  0
LINE
  5
1BC
100
AcDbEntity
100
AcDbLine
  8
0
 62
256
370
-1
 48
1.0
  6
BYLAYER
 10
-499.99999917719026
 20
96.932966528421275
 30
0.0
 11
-319.99999917719026
 21
96.932966528421275
 31
0.0
  0
LINE
  5
1BD
100
AcDbEntity
100
AcDbLine
  8
0
 62
256
370
-1
 48
1.0
  6
BYLAYER
 10
-500.0
 20
0.0
 30
0.0
 11
-320.0
 21
0.0
 31
0.0
  0
LINE
  5
1BE
100
AcDbEntity
100
AcDbLine
  8
0
 62
256
370
-1
 48
1.0
  6
BYLAYER
 10
-480.0
 20
60.0
 30
0.0
 11
-340.0
 21
60.0
 31
0.0
  0
LINE
  5
1BF
100
AcDbEntity
100
AcDbLine
  8
0
 62
256
370
-1
 48
1.0
  6
BYLAYER
 10
-340.0
 20
60.0
 30
0.0
 11
-340.0
 21
40.0
 31
0.0
  0
LINE
  5
1C0
100
AcDbEntity
100
AcDbLine
  8
0
 62
256
370
-1
 48
1.0
  6
BYLAYER
 10
-340.0
 20
40.0
 30
0.0
 11
-480.0
 21
40.0
 31
0.0
  0
LINE
  5
1C1
100
AcDbEntity
100
AcDbLine
  8
0
 62
256
370
-1
 48
1.0
  6
BYLAYER
 10
-480.0
 20
40.0
 30
0.0
 11
-480.0
 21
60.0
 31
0.0
  0
LINE
  5
1C2
100
AcDbEntity
100
AcDbLine
  8
0
 62
256
370
-1
 48
1.0
  6
BYLAYER
 10
-200.0
 20
56.918681689201243
 30
0.0
 11
-20.0
 21
56.918681689201243
 31
0.0
  0
LINE
  5
1C3
100
AcDbEntity
100
AcDbLine
  8
0
 62
256
370
-1
 48
1.0
  6
BYLAYER
 10
-200.00000000000003
 20
143.08131831079876
 30
0.0
 11
-20.000000000000028
 21
143.08131831079876
 31
0.0
  0
LINE
  5
1C4
100
AcDbEntity
100
AcDbLine
  8
0
 62
256
370
-1
 48
1.0
  6
BYLAYER
 10
-500.0
 20
-232.00000000000006
 30
0.0
 11
-500.0
 21
-40.0
 31
0.0
  0
LINE
  5
1C5
100
AcDbEntity
100
AcDbLine
  8
0
 62
256
370
-1
 48
1.0
  6
BYLAYER
 10
10.76747261716929
 20
-232.00000000000006
 30
0.0
 11
10.767472617169304
 21
-40.000000000000085
 31
0.0
  0
ENDSEC
  0
SECTION
  2
OBJECTS
  0
DICTIONARY
  5
C
100
AcDbDictionary
280
0
281
1
  3
ACAD_GROUP
350
D
  3
ACAD_LAYOUT
350
1A
  3
ACAD_MLINESTYLE
350
17
  3
ACAD_PLOTSETTINGS
350
19
  3
ACAD_PLOTSTYLENAME
350
E
  3
AcDbVariableDictionary
350
1C6
  3
QCAD_OBJECTS
350
1C7
  0
DICTIONARY
  5
D
100
AcDbDictionary
280
0
281
1
  0
ACDBDICTIONARYWDFLT
  5
E
100
AcDbDictionary
281
1
  3
Normal
350
F
100
AcDbDictionaryWithDefault
340
F
  0
ACDBPLACEHOLDER
  5
F
  0
DICTIONARY
  5
17
100
AcDbDictionary
280
0
281
1
  3
Standard
350
18
  0
MLINESTYLE
  5
18
100
AcDbMlineStyle
  2
STANDARD
 70
0
  3

 62
256
 51
90.0
 52
90.0
 71
2
 49
0.5
 62
256
  6
BYLAYER
 49
-0.5
 62
256
  6
BYLAYER
  0
DICTIONARY
  5
19
100
AcDbDictionary
280
0
281
1
  0
DICTIONARY
  5
1A
100
AcDbDictionary
281
1
  3
Layout1
350
1E
  3
Layout2
350
26
  3
Model
350
22
  0
LAYOUT
  5
1E
100
AcDbPlotSettings
  1

  2
none_device
  4

  6

 40
0.0
 41
0.0
 42
0.0
 43
0.0
 44
0.0
 45
0.0
 46
0.0
 47
0.0
 48
0.0
 49
0.0
140
0.0
141
0.0
142
1.0
143
1.0
 70
688
 72
0
 73
0
 74
5
  7

 75
16
147
1.0
148
0.0
149
0.0
100
AcDbLayout
  1
Layout1
 70
1
 71
1
 10
0.0
 20
0.0
 11
420.0
 21
297.0
 12
0.0
 22
0.0
 32
0.0
 14
100000000000000000000.0
 24
100000000000000000000.0
 34
100000000000000000000.0
 15
-100000000000000000000.0
 25
-100000000000000000000.0
 35
-100000000000000000000.0
146
0.0
 13
0.0
 23
0.0
 33
0.0
 16
1.0
 26
0.0
 36
0.0
 17
0.0
 27
1.0
 37
0.0
 76
0
330
1B
  0
LAYOUT
  5
22
100
AcDbPlotSettings
  1

  2
none_device
  4

  6

 40
0.0
 41
0.0
 42
0.0
 43
0.0
 44
0.0
 45
0.0
 46
0.0
 47
0.0
 48
0.0
 49
0.0
140
0.0
141
0.0
142
1.0
143
1.0
 70
1712
 72
0
 73
0
 74
0
  7

 75
0
147
1.0
148
0.0
149
0.0
100
AcDbLayout
  1
Model
 70
1
 71
0
 10
0.0
 20
0.0
 11
12.0
 21
9.0
 12
0.0
 22
0.0
 32
0.0
 14
0.0
 24
0.0
 34
0.0
 15
0.0
 25
0.0
 35
0.0
146
0.0
 13
0.0
 23
0.0
 33
0.0
 16
1.0
 26
0.0
 36
0.0
 17
0.0
 27
1.0
 37
0.0
 76
0
330
1F
  0
LAYOUT
  5
26
100
AcDbPlotSettings
  1

  2
none_device
  4

  6

 40
0.0
 41
0.0
 42
0.0
 43
0.0
 44
0.0
 45
0.0
 46
0.0
 47
0.0
 48
0.0
 49
0.0
140
0.0
141
0.0
142
1.0
143
1.0
 70
688
 72
0
 73
0
 74
5
  7

 75
16
147
1.0
148
0.0
149
0.0
100
AcDbLayout
  1
Layout2
 70
1
 71
2
 10
0.0
 20
0.0
 11
12.0
 21
9.0
 12
0.0
 22
0.0
 32
0.0
 14
0.0
 24
0.0
 34
0.0
 15
0.0
 25
0.0
 35
0.0
146
0.0
 13
0.0
 23
0.0
 33
0.0
 16
1.0
 26
0.0
 36
0.0
 17
0.0
 27
1.0
 37
0.0
 76
0
330
23
  0
DICTIONARY
  5
1C6
100
AcDbDictionary
281
1
  3
DIMASSOC
350
1C9
  3
HIDETEXT
350
1C8
  0
DICTIONARYVAR
  5
1C8
100
DictionaryVariables
280
0
  1
2
  0
DICTIONARYVAR
  5
1C9
100
DictionaryVariables
280
0
  1
1
  0
DICTIONARY
  5
1C7
100
AcDbDictionary
281
1
  3
ColorSettings/BackgroundColor
350
1CA
  3
ColorSettings/ColorMode
350
1CB
  3
Grid/DisplayGrid00
350
1CC
  3
Grid/DisplayGrid01
350
1CD
  3
Grid/DisplayGrid02
350
1CE
  3
Grid/DisplayGrid03
350
1CF
  3
Grid/GridSpacingX00
350
1D0
  3
Grid/GridSpacingX01
350
1D1
  3
Grid/GridSpacingX02
350
1D2
  3
Grid/GridSpacingX03
350
1D3
  3
Grid/GridSpacingY00
350
1D4
  3
Grid/GridSpacingY01
350
1D5
  3
Grid/GridSpacingY02
350
1D6
  3
Grid/GridSpacingY03
350
1D7
  3
Grid/IsometricGrid00
350
1D8
  3
Grid/IsometricGrid01
350
1D9
  3
Grid/IsometricGrid02
350
1DA
  3
Grid/IsometricGrid03
350
1DB
  3
Grid/IsometricProjection00
350
1DC
  3
Grid/IsometricProjection01
350
1DD
  3
Grid/IsometricProjection02
350
1DE
  3
Grid/IsometricProjection03
350
1DF
  3
Grid/MetaGridSpacingX00
350
1E0
  3
Grid/MetaGridSpacingX01
350
1E1
  3
Grid/MetaGridSpacingX02
350
1E2
  3
Grid/MetaGridSpacingX03
350
1E3
  3
Grid/MetaGridSpacingY00
350
1E4
  3
Grid/MetaGridSpacingY01
350
1E5
  3
Grid/MetaGridSpacingY02
350
1E6
  3
Grid/MetaGridSpacingY03
350
1E7
  3
MultiPageSettings/Columns
350
1E8
  3
MultiPageSettings/GlueMarginsBottom
350
1E9
  3
MultiPageSettings/GlueMarginsLeft
350
1EA
  3
MultiPageSettings/GlueMarginsRight
350
1EB
  3
MultiPageSettings/GlueMarginsTop
350
1EC
  3
MultiPageSettings/PrintCropMarks
350
1ED
  3
MultiPageSettings/Rows
350
1EE
  3
PageSettings/OffsetX
350
1EF
  3
PageSettings/OffsetY
350
1F0
  3
PageSettings/PageOrientation
350
1F1
  3
PageSettings/PaperHeight
350
1F2
  3
PageSettings/PaperWidth
350
1F3
  3
PageSettings/Scale
350
1F4
  3
PageSettings/ShowPaperBorders
350
1F5
  3
QCADVersion
350
1F6
  3
UnitSettings/PaperUnit
350
1F7
  3
ViewportCenter
350
1F8
  3
ViewportHeight
350
1F9
  3
ViewportWidth
350
1FA
  0
XRECORD
  5
1CA
330
1C7
100
AcDbXrecord
280
1
1000
\U+0411\U+0435\U+043b\U+044b\U+0439
  0
XRECORD
  5
1CB
330
1C7
100
AcDbXrecord
280
1
1000
FullColor
  0
XRECORD
  5
1CC
330
1C7
100
AcDbXrecord
280
1
290
1
  0
XRECORD
  5
1CD
330
1C7
100
AcDbXrecord
280
1
290
1
  0
XRECORD
  5
1CE
330
1C7
100
AcDbXrecord
280
1
290
1
  0
XRECORD
  5
1CF
330
1C7
100
AcDbXrecord
280
1
290
1
  0
XRECORD
  5
1D0
330
1C7
100
AcDbXrecord
280
1
1000
auto
  0
XRECORD
  5
1D1
330
1C7
100
AcDbXrecord
280
1
1000
auto
  0
XRECORD
  5
1D2
330
1C7
100
AcDbXrecord
280
1
1000
auto
  0
XRECORD
  5
1D3
330
1C7
100
AcDbXrecord
280
1
1000
auto
  0
XRECORD
  5
1D4
330
1C7
100
AcDbXrecord
280
1
1000
auto
  0
XRECORD
  5
1D5
330
1C7
100
AcDbXrecord
280
1
1000
auto
  0
XRECORD
  5
1D6
330
1C7
100
AcDbXrecord
280
1
1000
auto
  0
XRECORD
  5
1D7
330
1C7
100
AcDbXrecord
280
1
1000
auto
  0
XRECORD
  5
1D8
330
1C7
100
AcDbXrecord
280
1
290
0
  0
XRECORD
  5
1D9
330
1C7
100
AcDbXrecord
280
1
290
0
  0
XRECORD
  5
1DA
330
1C7
100
AcDbXrecord
280
1
290
0
  0
XRECORD
  5
1DB
330
1C7
100
AcDbXrecord
280
1
290
0
  0
XRECORD
  5
1DC
330
1C7
100
AcDbXrecord
280
1
 90
0
  0
XRECORD
  5
1DD
330
1C7
100
AcDbXrecord
280
1
 90
0
  0
XRECORD
  5
1DE
330
1C7
100
AcDbXrecord
280
1
 90
0
  0
XRECORD
  5
1DF
330
1C7
100
AcDbXrecord
280
1
 90
0
  0
XRECORD
  5
1E0
330
1C7
100
AcDbXrecord
280
1
1000
auto
  0
XRECORD
  5
1E1
330
1C7
100
AcDbXrecord
280
1
1000
auto
  0
XRECORD
  5
1E2
330
1C7
100
AcDbXrecord
280
1
1000
auto
  0
XRECORD
  5
1E3
330
1C7
100
AcDbXrecord
280
1
1000
auto
  0
XRECORD
  5
1E4
330
1C7
100
AcDbXrecord
280
1
1000
auto
  0
XRECORD
  5
1E5
330
1C7
100
AcDbXrecord
280
1
1000
auto
  0
XRECORD
  5
1E6
330
1C7
100
AcDbXrecord
280
1
1000
auto
  0
XRECORD
  5
1E7
330
1C7
100
AcDbXrecord
280
1
1000
auto
  0
XRECORD
  5
1E8
330
1C7
100
AcDbXrecord
280
1
 90
1
  0
XRECORD
  5
1E9
330
1C7
100
AcDbXrecord
280
1
 40
10.0
  0
XRECORD
  5
1EA
330
1C7
100
AcDbXrecord
280
1
 40
10.0
  0
XRECORD
  5
1EB
330
1C7
100
AcDbXrecord
280
1
 40
10.0
  0
XRECORD
  5
1EC
330
1C7
100
AcDbXrecord
280
1
 40
10.0
  0
XRECORD
  5
1ED
330
1C7
100
AcDbXrecord
280
1
290
0
  0
XRECORD
  5
1EE
330
1C7
100
AcDbXrecord
280
1
 90
1
  0
XRECORD
  5
1EF
330
1C7
100
AcDbXrecord
280
1
 40
0.0
  0
XRECORD
  5
1F0
330
1C7
100
AcDbXrecord
280
1
 40
0.0
  0
XRECORD
  5
1F1
330
1C7
100
AcDbXrecord
280
1
1000
Portrait
  0
XRECORD
  5
1F2
330
1C7
100
AcDbXrecord
280
1
 40
297.0
  0
XRECORD
  5
1F3
330
1C7
100
AcDbXrecord
280
1
 40
210.0
  0
XRECORD
  5
1F4
330
1C7
100
AcDbXrecord
280
1
1000
1:1
  0
XRECORD
  5
1F5
330
1C7
100
AcDbXrecord
280
1
290
1
  0
XRECORD
  5
1F6
330
1C7
100
AcDbXrecord
280
1
1000
3.15.4
  0
XRECORD
  5
1F7
330
1C7
100
AcDbXrecord
280
1
 90
4
  0
XRECORD
  5
1F9
330
1C7
100
AcDbXrecord
280
1
 40
997.19151354674
  0
XRECORD
  5
1FA
330
1C7
100
AcDbXrecord
280
1
 40
2886.8112298785004
  0
ENDSEC
  0
EOF
